<?xml version="1.0" encoding="utf-8"?>
<!-- Generator: Adobe Illustrator 22.0.1, SVG Export Plug-In . SVG Version: 6.00 Build 0)  -->
<svg version="1.1" id="Layer_1" xmlns="http://www.w3.org/2000/svg" xmlns:xlink="http://www.w3.org/1999/xlink" x="0px" y="0px"
	 viewBox="0 0 100 100" style="enable-background:new 0 0 100 100;" xml:space="preserve">
<style type="text/css">
	.st0{fill:#FFFFFF;}
</style>
<path d="M88.8,60.2c-1.1-3.9-3.7-7.3-7.2-9.3c-0.4-0.2-0.7-0.4-1.1-0.6c0.4-0.2,0.7-0.4,1.1-0.6c1.8-1,3.3-2.4,4.5-3.9
	c1.2-1.6,2.2-3.4,2.7-5.4c1.1-3.9,0.6-8.1-1.3-11.7l0.4-0.6h-0.7c-2.1-3.5-5.5-6-9.5-7c-4-1-8.2-0.4-11.7,1.6
	c-0.4,0.2-0.7,0.4-1,0.7c0-0.4,0.1-0.8,0.1-1.2c0-2-0.4-4-1.2-5.9c-0.8-1.9-1.9-3.6-3.3-5c-2.8-2.9-6.7-4.6-10.8-4.7l-0.3-0.6
	l-0.3,0.6c-2,0-4,0.5-5.9,1.3c-1.8,0.8-3.5,2-5,3.4c-2.8,2.9-4.5,6.8-4.5,10.9c0,0.4,0,0.8,0.1,1.2c-0.3-0.2-0.7-0.5-1-0.7
	c-3.5-2-7.7-2.6-11.7-1.6c-4,1-7.3,3.5-9.5,7L11,28.1l0.4,0.6c-1.3,2.3-1.9,4.9-1.9,7.5c0,1.4,0.2,2.8,0.6,4.2
	c1.1,3.9,3.7,7.3,7.2,9.3c0.4,0.2,0.7,0.4,1.1,0.6c-0.4,0.2-0.7,0.4-1.1,0.6c-3.5,2-6.1,5.4-7.2,9.3c-1.1,3.9-0.6,8.1,1.3,11.7
	L11,72.4h0.7c2.1,3.5,5.4,6,9.3,7c1.3,0.4,2.7,0.5,4.1,0.5c2.7,0,5.4-0.7,7.8-2.1c0.4-0.2,0.7-0.4,1-0.7c0,0.4-0.1,0.8-0.1,1.2
	c0,4.1,1.6,8,4.5,10.9c2.9,2.9,6.8,4.6,10.8,4.7l0.3,0.7l0.3-0.7c4.1-0.1,8-1.8,10.8-4.7c2.8-2.9,4.5-6.8,4.5-10.9
	c0-0.4,0-0.8-0.1-1.2c0.3,0.2,0.7,0.5,1,0.7c2.4,1.4,5,2.1,7.8,2.1c1.4,0,2.7-0.2,4.1-0.5c3.9-1,7.2-3.6,9.3-7h0.7l-0.4-0.6
	C89.5,68.3,89.9,64.1,88.8,60.2z M87.8,40.4c-1,3.6-3.4,6.6-6.6,8.5c-0.6,0.3-1.2,0.7-1.9,0.9l-0.7-0.2L84,35.7l-1.5,0.4l4.3-6.5
	C88.5,33,88.9,36.8,87.8,40.4z M77.1,70.8l-9.4-9.1l-0.1-0.9l0.8-0.3L81,64l4.9,7.3L77.1,70.8z M77.2,72.3l-12.5,1.8l2.3-2.9
	l9.6,0.6L77.2,72.3z M62,74.5l-4,0.6l-4,8.1l-2.9-11.7l0.1-1.6l5.2-4.3v0c0.8,0.4,1.5,0.9,2.2,1.4c0.1,0.5,0.2,1,0.3,1.4
	C59.4,70.7,60.5,72.7,62,74.5z M59.7,68.1c1.7,1.7,3,3.8,3.7,6l-0.1,0.2h-0.2C61.5,72.5,60.3,70.4,59.7,68.1z M62.4,75.5l-7.8,9.9
	l-0.2-0.7l4.3-8.7L62.4,75.5z M49.5,66.4l-0.8-0.3l-0.1-2.2h1.8l-0.1,2.2L49.5,66.4z M50.2,67.2v0.9L50,67.3L50.2,67.2z M49.6,69.8
	L49.5,70l-0.2-0.2l0.2-0.7L49.6,69.8z M48.9,67.3l-0.2,0.8v-0.9L48.9,67.3z M48.4,62.9l-0.4-9.1l1.3-0.7l1.4,0.7l-0.4,9.1H48.4z
	 M49.5,52l-1.4,0.7L48,51.1l-1.3-0.8l1.3-0.8l0.1-1.5l1.4,0.7l1.4-0.7l0.1,1.5l1.3,0.8l-1.3,0.8l-0.1,1.5L49.5,52z M40.9,75.1
	L37,74.5c1.5-1.8,2.6-3.8,3.2-6.1c0.1-0.5,0.2-1,0.3-1.4c0.7-0.5,1.4-1,2.2-1.4l5.1,4.3l0.1,1.6l-3,11.7L40.9,75.1z M44.5,84.6
	l-0.2,0.7l-7.8-9.9l3.7,0.6L44.5,84.6z M35.8,74.3l-0.2,0l-0.1-0.1c0.7-2.3,2-4.4,3.7-6.1v0.1C38.6,70.5,37.4,72.6,35.8,74.3z
	 M21.8,70.8L13,71.4l4.9-7.4l12.7-3.5l0.8,0.3l-0.2,0.9L21.8,70.8z M22.2,71.8l9.6-0.6l2.3,2.9l-12.5-1.8L22.2,71.8z M21.8,29.8
	l9.3,9.2l0.2,0.9l-0.8,0.3l-12.6-3.6L13,29.2L21.8,29.8z M21.7,28.3l12.5-1.8l-2.3,2.9l-9.6-0.6L21.7,28.3z M36.9,26.1l3.9-0.6
	l4-8.1l3,11.7l-0.1,1.6L42.6,35c-0.8-0.4-1.5-0.9-2.2-1.4c-0.1-0.5-0.2-1-0.3-1.4C39.5,29.9,38.4,27.8,36.9,26.1z M39.2,32.5
	L39.2,32.5c-1.7-1.7-3-3.7-3.7-6l0.1-0.1h0.2C37.4,28,38.6,30.2,39.2,32.5z M36.5,25.2l7.8-9.9l0.2,0.7l-4.3,8.6L36.5,25.2z
	 M44.1,35.1l3.6-3l-0.1,1.7L44.1,35.1z M47.6,34.9l-0.1,1.7c-1-0.1-1.9-0.3-2.8-0.7L47.6,34.9z M41.8,35.7l-0.6,0.4l-0.6,0.2V35
	C41,35.2,41.4,35.5,41.8,35.7z M40.5,38l1.2-1l1.5-0.6c1.3,0.6,2.8,1,4.2,1.1l-0.3,8.7l-7.7-4.1C40,40.9,40.3,39.5,40.5,38z
	 M47.1,47.4L47,48.9l-1.3,0.8L38,44.8c0.2-0.3,0.4-0.5,0.5-0.8c0.2-0.3,0.3-0.6,0.5-0.9L47.1,47.4z M37.2,56.3
	c0.2,0.2,0.3,0.5,0.5,0.8c0.2,0.3,0.3,0.5,0.4,0.8l-1.9,1l-0.7-0.5l-0.2-0.9L37.2,56.3z M35.2,56.4l-0.5-3c0.7,0.6,1.4,1.3,2,2.1h0
	L35.2,56.4z M37.5,55c-0.9-1.2-1.9-2.2-3.1-3.1l-0.3-1.6l0.3-1.6c1.2-0.9,2.2-1.9,3.1-3.1l7.4,4.7L37.5,55z M36.6,45.1
	c-0.6,0.8-1.3,1.5-2,2.1l0.5-3L36.6,45.1z M35.3,43.1l0.1-0.8l0.7-0.6l1.9,1c-0.1,0.3-0.3,0.5-0.4,0.8c-0.1,0.3-0.3,0.5-0.5,0.8
	L35.3,43.1z M38.5,41.8L38.5,41.8L37,41l2.4-2C39.2,40,38.9,40.9,38.5,41.8z M36,40.5l-1.5-0.8l4.5-1.6L36,40.5z M35.2,41.2L35,41.3
	l-0.6-0.6L35.2,41.2z M34.5,42.3l0,0.2l-0.8-0.5L34.5,42.3z M34.2,43.6l-0.6,3.7l-0.8-4.6L34.2,43.6z M33.1,50.3L33,51
	c-0.4-0.2-0.8-0.5-1.2-0.7c0.4-0.2,0.8-0.4,1.2-0.7L33.1,50.3z M32.4,40.7v-0.2l0.2-0.1l0.5,0.5L32.4,40.7z M32.8,48.6
	c-0.7,0.5-1.5,0.8-2.3,1.2c-0.5-0.2-0.9-0.3-1.4-0.5c-2.2-0.6-4.6-0.7-6.8-0.3l1.5-3.7l-5-7.5l11.6,3.3l1.4,0.9L32.8,48.6z
	 M28.9,50.3L28.9,50.3c-2.3,0.6-4.8,0.7-7.1,0.1l0-0.2l0.1-0.1c1-0.2,2.1-0.4,3.2-0.4C26.3,49.8,27.6,50,28.9,50.3z M17.2,37.4
	l5.4,8L21.2,49l-4.7-11.8L17.2,37.4z M22.6,55.1l-5.4,8l-0.7,0.2l4.7-11.7L22.6,55.1z M30.3,59.5l-11.6,3.3l5-7.5l-1.5-3.7
	c0.9,0.2,1.8,0.3,2.8,0.3c1.4,0,2.7-0.2,4.1-0.5c0.5-0.1,0.9-0.3,1.4-0.4c0.8,0.3,1.6,0.7,2.3,1.2l-1.1,6.6L30.3,59.5z M32.5,59.9
	l0.7-0.2l-0.5,0.5l-0.2-0.1L32.5,59.9z M32.8,57.9l0.8-4.6l0.6,3.7L32.8,57.9z M34.4,58.1l0,0.2l-0.8,0.2L34.4,58.1z M35,59.3
	l0.2,0.2l-0.8,0.4L35,59.3z M36.1,60.1l2.9,2.4l-4.4-1.6L36.1,60.1z M37,59.6l1.5-0.8c0.4,0.9,0.6,1.8,0.8,2.8L37,59.6z M39,57.4
	c-0.1-0.3-0.3-0.6-0.4-0.8h0c-0.2-0.3-0.4-0.6-0.6-0.8l7.7-4.9l1.3,0.8l0.1,1.5L39,57.4z M47.1,54.3l0.4,8.7
	c-1.5,0.2-2.9,0.6-4.2,1.1l-1.5-0.6l-1.2-1c-0.2-1.5-0.6-2.9-1.1-4.2L47.1,54.3z M47.6,65.7l-2.9-1.1c0.9-0.3,1.9-0.5,2.8-0.7v0
	L47.6,65.7z M47.7,66.8l0.1,1.7l-3.6-3L47.7,66.8z M40.6,64.2l0.7,0.2l0.5,0.4c-0.4,0.2-0.8,0.5-1.2,0.7
	C40.6,65.2,40.7,64.7,40.6,64.2z M49.4,34.2l0.8,0.3l0.1,2.2h-1.8l0.1-2.2L49.4,34.2z M48.6,33.4v-0.9l0.2,0.8L48.6,33.4z
	 M49.3,30.8l0.2-0.1l0.2,0.1l-0.2,0.7L49.3,30.8z M50,33.3l0.2-0.8v0.9L50,33.3z M50.5,37.7l0.4,9.1l-1.3,0.7l-1.4-0.7l0.4-9.1H50.5
	z M58,25.5l4,0.6c-1.5,1.8-2.6,3.8-3.2,6.1c-0.1,0.5-0.2,1-0.3,1.4c-0.7,0.5-1.4,1-2.2,1.4l-5.2-4.3l-0.1-1.6l3-11.7L58,25.5z
	 M54.4,16l0.2-0.7l7.8,9.9l-3.7-0.5L54.4,16z M63.2,26.3l0.2,0l0.1,0.1c-0.7,2.3-2,4.4-3.7,6.1v-0.1C60.4,30.1,61.5,28,63.2,26.3z
	 M77.1,29.8l8.8-0.6L81,36.6l-12.6,3.6l-0.8-0.3l0.1-0.8L77.1,29.8z M76.7,28.8l-9.6,0.6l-2.3-2.9l12.5,1.8L76.7,28.8z M68.6,41.1
	l11.6-3.3l-5,7.5l1.5,3.7c-2.8-0.5-5.6-0.3-8.2,0.7c-0.8-0.3-1.6-0.7-2.3-1.2l1.2-6.6L68.6,41.1z M77.1,50.2l0,0.1l-0.1,0.2
	c-2.3,0.5-4.7,0.5-7-0.1H70c1.3-0.3,2.6-0.5,3.9-0.5C75,49.8,76.1,49.9,77.1,50.2z M67.1,50.3c-0.4,0.2-0.8,0.4-1.2,0.7l-0.1-0.7
	l0.1-0.7C66.3,49.9,66.7,50.1,67.1,50.3z M66.4,40.7l-0.6,0.2l0.5-0.5l0.2,0.1L66.4,40.7z M66.1,42.7l-0.8,4.6l-0.6-3.7L66.1,42.7z
	 M62.3,55.5c0.6-0.8,1.3-1.5,2-2.1l-0.5,3L62.3,55.5z M63.5,57.5l-0.1,0.8l-0.7,0.6l-1.9-1c0.1-0.3,0.3-0.5,0.4-0.8
	c0.2-0.3,0.3-0.5,0.5-0.8L63.5,57.5z M61.4,55L54,50.3l7.4-4.7c0.9,1.2,1.9,2.2,3.1,3.1l0.3,1.6l-0.3,1.6
	C63.3,52.8,62.3,53.8,61.4,55z M61.7,44.3c-0.2-0.3-0.3-0.5-0.5-0.8c-0.2-0.3-0.3-0.5-0.4-0.8l1.9-1l0.7,0.5l0.1,0.9L61.7,44.3z
	 M63.7,44.2l0.5,3c-0.7-0.6-1.4-1.3-2-2.1L63.7,44.2z M64.5,42.5l0-0.2l0.8-0.2L64.5,42.5z M63.9,41.3l-0.2-0.2l0.8-0.4L63.9,41.3z
	 M62.8,40.5L59.9,38l4.4,1.6L62.8,40.5z M61.9,41l-1.5,0.8C60,40.9,59.7,40,59.5,39L61.9,41z M59.9,43.2c0.1,0.3,0.3,0.6,0.4,0.9
	c0.2,0.3,0.3,0.5,0.5,0.8l-7.7,4.9l-1.3-0.8l0-1.5L59.9,43.2z M51.8,46.3l-0.3-8.7c1.4-0.2,2.9-0.6,4.2-1.1l1.5,0.5l1.2,1
	c0.2,1.5,0.6,2.9,1.1,4.2L51.8,46.3z M54.2,35.9c-0.9,0.3-1.8,0.5-2.8,0.7h0l0-1.7L54.2,35.9z M51.3,33.8l-0.1-1.7l3.6,3L51.3,33.8z
	 M58.3,36.4l-0.7-0.2l-0.5-0.4c0.4-0.2,0.8-0.5,1.2-0.7C58.3,35.4,58.2,35.9,58.3,36.4z M51.3,65.7l0.1-1.7c1,0.1,1.9,0.3,2.8,0.7
	L51.3,65.7z M54.8,65.5l-3.6,3l0.1-1.7L54.8,65.5z M57.1,64.9l0.6-0.4l0.6-0.2v1.4C57.9,65.4,57.5,65.1,57.1,64.9z M58.4,62.6
	l-1.2,1l-1.5,0.6c-1.3-0.6-2.8-1-4.2-1.1l0.4-8.7l7.7,4.1C58.9,59.7,58.5,61.1,58.4,62.6z M51.8,53.2l0.1-1.5l1.3-0.8l7.7,4.9
	c-0.2,0.3-0.4,0.5-0.5,0.8c-0.2,0.3-0.3,0.6-0.4,0.9L51.8,53.2z M60.4,58.8l1.5,0.8l-2.4,2C59.7,60.7,60,59.7,60.4,58.8z M62.9,60.1
	l1.5,0.8L60,62.5L62.9,60.1z M63.7,59.4l0.2-0.2l0.6,0.6L63.7,59.4z M64.4,58.3l0-0.2l0.8,0.5L64.4,58.3z M64.7,57l0.6-3.7l0.8,4.6
	L64.7,57z M66.5,59.9v0.2l-0.2,0.1l-0.5-0.5L66.5,59.9z M66.1,52c0.7-0.5,1.5-0.9,2.3-1.2c0.5,0.2,0.9,0.3,1.4,0.5
	c1.3,0.3,2.7,0.5,4.1,0.5c0.9,0,1.9-0.1,2.8-0.3l-1.5,3.7l5,7.5l-11.6-3.2l-1.4-0.9L66.1,52z M81.7,63.2l-5.4-8l1.4-3.5l4.7,11.7
	L81.7,63.2z M77.7,49l-1.4-3.5l5.4-8l0.7-0.3L77.7,49z M64.8,24.8c0.5-0.4,1.1-0.8,1.7-1.2c2.2-1.3,4.7-2,7.3-2
	c1.3,0,2.6,0.2,3.8,0.5c3.5,0.9,6.4,3.1,8.4,6.1l-7.8,0.5l1.1-1.1l-14.6-2.1C64.7,25.3,64.8,25,64.8,24.8z M66.6,30.5l9-0.6L67,38.3
	l-1.4,0.8l-6.3-2.3c0-0.9,0-1.7,0.1-2.6c2.2-1.8,3.8-4.1,4.7-6.8L66.6,30.5z M55.6,8.9c1.7,0.8,3.2,1.9,4.5,3.2c2.6,2.7,4,6.3,4,10
	c0,0.7-0.1,1.4-0.2,2.1l-0.6,0.5l-9.2-11.6l-0.4,1.5l-3.5-7C52.1,7.7,53.9,8.1,55.6,8.9z M49.5,8.2l3.9,7.9l-3.2,12.7l-0.7,0.6
	l-0.7-0.6l-3.2-12.7L49.5,8.2z M38.8,12.1c2.6-2.7,6.1-4.3,9.8-4.5l-3.5,7L44.8,13l-9.2,11.7L35,24.2c-0.1-0.7-0.2-1.4-0.2-2.1l0,0
	C34.8,18.4,36.3,14.8,38.8,12.1z M39.5,34.1c0.1,0.9,0.2,1.7,0.1,2.6l-6.3,2.3l-1.4-0.8l-8.6-8.4l9,0.6l2.5-3.1
	C35.7,30,37.3,32.3,39.5,34.1z M21.3,22.1L21.3,22.1c1.2-0.3,2.5-0.5,3.8-0.5c2.6,0,5.1,0.7,7.3,2c0.6,0.3,1.2,0.8,1.7,1.2
	c0,0.2,0.1,0.5,0.1,0.7l-14.7,2.1l1.1,1.1l-7.8-0.5C14.8,25.2,17.8,23,21.3,22.1z M17.8,48.9C14.5,47,12.1,44,11,40.4
	c-1.1-3.6-0.7-7.4,1-10.8l4.3,6.5l-1.5-0.4l5.5,13.8l-0.7,0.2C19,49.5,18.3,49.2,17.8,48.9z M11,60.2c1.1-3.6,3.5-6.6,6.7-8.5
	c0.6-0.3,1.2-0.6,1.9-0.9l0.7,0.3l-5.5,13.8l1.5-0.4L12,71C10.3,67.7,10,63.8,11,60.2z M34.1,75.9c-0.5,0.4-1.1,0.8-1.7,1.1
	c-3.2,1.9-7,2.4-10.7,1.6s-6.8-3.1-8.8-6.2l7.8-0.5L19.5,73l14.7,2.1C34.2,75.4,34.1,75.6,34.1,75.9z M32.3,70.1l-9,0.6l8.7-8.4
	l1.4-0.8l6.3,2.3c0,0.2,0,0.3,0,0.5c0,0.7,0,1.4-0.2,2.1c-2.2,1.8-3.8,4.1-4.7,6.8L32.3,70.1z M38.8,88.5c-2.6-2.7-4-6.3-4-10v0
	c0-0.7,0.1-1.4,0.2-2l0.6-0.5l9.2,11.6l0.4-1.5l3.5,7C44.9,92.8,41.4,91.2,38.8,88.5z M49.4,92.5l-3.9-7.9l3.2-12.7l0.7-0.6l0.7,0.6
	l3.2,12.7L49.4,92.5z M60.1,88.5c-2.6,2.7-6.1,4.3-9.8,4.5l3.5-7l0.4,1.5l9.2-11.6l0.6,0.5c0.1,0.7,0.2,1.4,0.2,2.1l0,0
	C64,82.2,62.6,85.8,60.1,88.5z M59.4,66.5c-0.1-0.9-0.2-1.7-0.2-2.6l6.3-2.3l1.5,0.7l8.6,8.4l-9-0.6l-2.5,3.1
	C63.2,70.6,61.5,68.3,59.4,66.5z M77.6,78.5L77.6,78.5c-4.4,1.2-9.2,0.2-12.8-2.7c0-0.2-0.1-0.5-0.1-0.7l14.7-2l-1.1-1.1l7.8,0.5
	C84.1,75.4,81.1,77.6,77.6,78.5z M86.9,71l-4.3-6.6l1.5,0.4l-5.5-13.8l0.7-0.3c3.8,1.5,6.8,4.6,8.2,8.4C89,63.1,88.7,67.3,86.9,71z"
	/>
<path class="st0" d="M11,40.4c-1.1-3.6-0.7-7.4,1-10.8l4.3,6.5l-1.5-0.4l5.5,13.8l-0.7,0.2c-0.6-0.2-1.3-0.5-1.8-0.9
	C14.5,47,12.1,44,11,40.4z"/>
<path class="st0" d="M16.4,64.4L12,71c-1.7-3.3-2-7.2-1-10.8c1.1-3.6,3.5-6.6,6.7-8.5c0.6-0.3,1.2-0.6,1.9-0.9l0.7,0.3l-5.5,13.8
	L16.4,64.4z"/>
<polygon class="st0" points="21.2,49 16.5,37.2 17.2,37.4 22.6,45.4 "/>
<polygon class="st0" points="16.5,63.4 21.2,51.7 22.6,55.1 17.2,63.1 "/>
<path class="st0" d="M25,49.8c1.3,0,2.6,0.2,3.9,0.5h-0.1c-2.3,0.6-4.7,0.7-7,0.1l0-0.2l0.1-0.1C22.8,49.9,23.9,49.8,25,49.8z"/>
<polygon class="st0" points="13,29.2 21.8,29.8 31.2,39 31.3,39.9 30.5,40.2 17.9,36.6 "/>
<polygon class="st0" points="31.2,61.6 21.8,70.8 13,71.4 17.9,64 30.5,60.5 31.3,60.8 "/>
<path class="st0" d="M31.7,58.6l-1.4,0.9l-11.6,3.3l5-7.5l-1.5-3.7c0.9,0.2,1.8,0.3,2.8,0.3c1.4,0,2.7-0.2,4.1-0.5
	c0.5-0.1,0.9-0.3,1.4-0.4c0.8,0.3,1.6,0.7,2.3,1.2L31.7,58.6z"/>
<path class="st0" d="M31.7,42l1.1,6.6c-0.7,0.5-1.5,0.8-2.3,1.2c-0.5-0.2-0.9-0.3-1.4-0.5c-2.2-0.6-4.6-0.7-6.8-0.3l1.5-3.7l-5-7.5
	l11.6,3.3L31.7,42z"/>
<polygon class="st0" points="32.6,40.4 33.1,40.9 32.4,40.7 32.4,40.5 "/>
<path class="st0" d="M31.8,50.3c0.4-0.2,0.8-0.4,1.2-0.7l0.1,0.6L33,51C32.6,50.8,32.2,50.5,31.8,50.3z"/>
<polygon class="st0" points="32.6,60.2 32.4,60.1 32.5,59.9 33.1,59.7 "/>
<polygon class="st0" points="21.7,72.3 22.2,71.8 31.8,71.1 34.2,74.1 "/>
<polygon class="st0" points="22.2,28.8 21.7,28.3 34.2,26.5 31.8,29.5 "/>
<path class="st0" d="M20.7,28.7l-7.8-0.5c2-3,5-5.2,8.4-6.1l0,0c1.2-0.3,2.5-0.5,3.8-0.5c2.6,0,5.1,0.7,7.3,2
	c0.6,0.3,1.2,0.8,1.7,1.2c0,0.2,0.1,0.5,0.1,0.7l-14.7,2.1L20.7,28.7z"/>
<path class="st0" d="M19.5,73l14.7,2.1c0,0.2-0.1,0.5-0.1,0.7c-0.5,0.4-1.1,0.8-1.7,1.1c-3.2,1.9-7,2.4-10.7,1.6s-6.8-3.1-8.8-6.2
	l7.8-0.5L19.5,73z"/>
<polygon class="st0" points="32.8,42.7 34.2,43.6 33.6,47.3 "/>
<polygon class="st0" points="34.2,57 32.8,57.9 33.6,53.3 "/>
<polygon class="st0" points="33.7,42.1 34.5,42.3 34.4,42.5 "/>
<polygon class="st0" points="34.5,58.3 33.7,58.5 34.4,58.1 "/>
<polygon class="st0" points="34.4,40.8 35.2,41.2 35,41.3 "/>
<polygon class="st0" points="35.2,59.5 34.4,59.9 35,59.3 "/>
<path class="st0" d="M35.1,44.2l1.5,0.9c-0.6,0.8-1.3,1.5-2,2.1L35.1,44.2z"/>
<path class="st0" d="M36.6,55.5L36.6,55.5l-1.5,0.9l-0.5-3C35.4,54,36,54.7,36.6,55.5z"/>
<path class="st0" d="M37.2,44.3l-1.8-1.2l0.1-0.8l0.7-0.6l1.9,1c-0.1,0.3-0.3,0.5-0.4,0.8C37.5,43.8,37.3,44,37.2,44.3z"/>
<path class="st0" d="M35.5,58.4l-0.2-0.9l1.9-1.2c0.2,0.2,0.3,0.5,0.5,0.8c0.2,0.3,0.3,0.5,0.4,0.8l-1.9,1L35.5,58.4z"/>
<polygon class="st0" points="39,62.5 34.6,60.9 36.1,60.1 "/>
<polygon class="st0" points="34.5,39.7 39,38.1 36,40.5 "/>
<path class="st0" d="M35.8,26.3c1.6,1.7,2.8,3.8,3.4,6.2v0c-1.7-1.7-3-3.8-3.7-6.1l0.1-0.1H35.8z"/>
<path class="st0" d="M39.2,68.2c-0.6,2.3-1.8,4.4-3.4,6.2l-0.2,0l-0.1-0.1C36.2,71.9,37.5,69.8,39.2,68.2L39.2,68.2z"/>
<path class="st0" d="M37,41l2.4-2c-0.2,1-0.5,1.9-0.8,2.8h0L37,41z"/>
<path class="st0" d="M39.4,61.6l-2.4-2l1.5-0.8C38.9,59.7,39.2,60.6,39.4,61.6z"/>
<path class="st0" d="M32.3,30.5l2.5-3.1c0.9,2.6,2.6,5,4.7,6.8c0.1,0.9,0.2,1.7,0.1,2.6l-6.3,2.3l-1.4-0.8l-8.6-8.4L32.3,30.5z"/>
<path class="st0" d="M34.8,73.2l-2.5-3.1l-9,0.6l8.7-8.4l1.4-0.8l6.3,2.3c0,0.2,0,0.3,0,0.5c0,0.7,0,1.4-0.2,2.1
	C37.4,68.2,35.7,70.6,34.8,73.2z"/>
<path class="st0" d="M40.6,65.6c0-0.5,0.1-0.9,0-1.4l0.7,0.2l0.5,0.4C41.4,65.1,41,65.4,40.6,65.6z"/>
<path class="st0" d="M40.6,36.4V35c0.4,0.3,0.8,0.5,1.2,0.7l-0.6,0.4L40.6,36.4z"/>
<polygon class="st0" points="40.2,24.6 36.5,25.2 44.3,15.3 44.5,16 "/>
<polygon class="st0" points="40.2,76 44.5,84.6 44.3,85.3 36.5,75.4 "/>
<path class="st0" d="M44.8,50.3L37.5,55c-0.9-1.2-1.9-2.2-3.1-3.1l-0.3-1.6l0.3-1.6c1.2-0.9,2.2-1.9,3.1-3.1L44.8,50.3z"/>
<path class="st0" d="M47.1,53.2L39,57.4c-0.1-0.3-0.3-0.6-0.4-0.8h0c-0.2-0.3-0.4-0.6-0.6-0.8l7.7-4.9l1.3,0.8L47.1,53.2z"/>
<path class="st0" d="M39,43.2l8.1,4.3L47,48.9l-1.3,0.8L38,44.8c0.2-0.3,0.4-0.5,0.5-0.8C38.7,43.7,38.9,43.5,39,43.2z"/>
<path class="st0" d="M39.4,42.2c0.6-1.3,0.9-2.8,1.1-4.2l1.2-1l1.5-0.6c1.3,0.6,2.8,1,4.2,1.1l-0.3,8.7L39.4,42.2z"/>
<path class="st0" d="M40.5,62.6c-0.2-1.5-0.6-2.9-1.1-4.2l7.7-4.1l0.4,8.7c-1.5,0.2-2.9,0.6-4.2,1.1l-1.5-0.6L40.5,62.6z"/>
<path class="st0" d="M47.5,36.6c-1-0.1-1.9-0.3-2.8-0.7l2.9-1.1L47.5,36.6z"/>
<path class="st0" d="M47.5,64L47.5,64l0.1,1.7l-2.9-1.1C45.6,64.3,46.6,64.1,47.5,64z"/>
<polygon class="st0" points="47.6,33.8 44.1,35.1 47.7,32.1 "/>
<polygon class="st0" points="44.1,65.5 47.7,66.8 47.7,68.5 "/>
<path class="st0" d="M40.1,32.2c-0.6-2.2-1.7-4.3-3.2-6.1l3.9-0.6l4-8.1l3,11.7l-0.1,1.6L42.6,35c-0.8-0.4-1.5-0.9-2.2-1.4
	C40.4,33.1,40.3,32.6,40.1,32.2z"/>
<path class="st0" d="M44.8,83.2l-3.9-8.1L37,74.5c1.5-1.8,2.6-3.8,3.2-6.1c0.1-0.5,0.2-1,0.3-1.4c0.7-0.5,1.4-1,2.2-1.4l5.1,4.3
	l0.1,1.6L44.8,83.2z"/>
<path class="st0" d="M45.2,86l3.5,7c-3.7-0.2-7.2-1.8-9.8-4.5c-2.6-2.7-4-6.3-4-10v0c0-0.7,0.1-1.4,0.2-2l0.6-0.5l9.2,11.6L45.2,86z
	"/>
<path class="st0" d="M34.8,22.1L34.8,22.1c0-3.7,1.4-7.3,4-10c2.6-2.7,6.1-4.3,9.8-4.5l-3.5,7L44.8,13l-9.2,11.7L35,24.2
	C34.9,23.5,34.8,22.8,34.8,22.1z"/>
<polygon class="st0" points="48.6,32.5 48.9,33.3 48.6,33.4 "/>
<polygon class="st0" points="48.7,68.1 48.7,67.2 48.9,67.3 "/>
<polygon class="st0" points="49.5,31.5 49.3,30.8 49.5,30.7 49.6,30.8 "/>
<polygon class="st0" points="49.3,69.8 49.5,69.2 49.6,69.8 49.5,70 "/>
<polygon class="st0" points="50.2,32.5 50.2,33.4 50,33.3 "/>
<polygon class="st0" points="50.2,68.1 50,67.3 50.2,67.2 "/>
<polygon class="st0" points="48.6,34.5 49.4,34.2 50.3,34.5 50.3,36.7 48.5,36.7 "/>
<polygon class="st0" points="50.3,66.1 49.5,66.4 48.6,66.1 48.5,63.9 50.4,63.9 "/>
<polygon class="st0" points="50.4,62.9 48.4,62.9 48.1,53.8 49.4,53.1 50.8,53.8 "/>
<polygon class="st0" points="48.5,37.7 50.5,37.7 50.8,46.8 49.5,47.5 48.1,46.8 "/>
<polygon class="st0" points="50.8,52.7 49.5,52 48.1,52.7 48,51.1 46.7,50.3 48,49.5 48.1,48 49.4,48.7 50.8,48 50.8,49.5 
	52.2,50.3 50.9,51.1 "/>
<polygon class="st0" points="53.3,84.5 49.4,92.5 45.5,84.5 48.8,71.8 49.4,71.2 50.1,71.8 "/>
<polygon class="st0" points="45.5,16.1 49.5,8.2 53.4,16.1 50.1,28.8 49.5,29.4 48.8,28.8 "/>
<path class="st0" d="M51.4,64c1,0.1,1.9,0.3,2.8,0.7l-2.9,1.1L51.4,64z"/>
<path class="st0" d="M51.3,36.6l0-1.7l2.9,1.1C53.3,36.2,52.3,36.5,51.3,36.6L51.3,36.6z"/>
<polygon class="st0" points="54.8,35.1 51.3,33.8 51.2,32.1 "/>
<polygon class="st0" points="51.3,66.8 54.8,65.5 51.2,68.5 "/>
<path class="st0" d="M58.3,64.2v1.4c-0.4-0.3-0.8-0.5-1.2-0.7l0.6-0.4L58.3,64.2z"/>
<path class="st0" d="M58.3,35c0,0.5,0,0.9,0,1.4l-0.7-0.2l-0.5-0.4C57.5,35.5,57.9,35.2,58.3,35z"/>
<path class="st0" d="M58.3,38c0.2,1.5,0.6,2.9,1.1,4.2l-7.7,4.1l-0.3-8.7c1.4-0.2,2.9-0.6,4.2-1.1l1.5,0.5L58.3,38z"/>
<path class="st0" d="M59.5,58.3c-0.6,1.3-0.9,2.8-1.1,4.2l-1.2,1l-1.5,0.6c-1.3-0.6-2.8-1-4.2-1.1l0.4-8.7L59.5,58.3z"/>
<path class="st0" d="M59.9,57.4l-8.1-4.3l0.1-1.5l1.3-0.8l7.7,4.9c-0.2,0.3-0.4,0.5-0.5,0.8C60.2,56.9,60,57.2,59.9,57.4z"/>
<path class="st0" d="M51.8,47.4l8.1-4.3c0.1,0.3,0.3,0.6,0.4,0.9c0.2,0.3,0.3,0.5,0.5,0.8l-7.7,4.9l-1.3-0.8L51.8,47.4z"/>
<path class="st0" d="M61.9,59.6l-2.4,2c0.2-1,0.5-1.9,0.8-2.8L61.9,59.6z"/>
<path class="st0" d="M59.5,39l2.4,2l-1.5,0.8C60,40.9,59.7,40,59.5,39z"/>
<path class="st0" d="M58.8,68.4c0.6,2.2,1.7,4.3,3.2,6.1l-4,0.6l-4,8.1l-2.9-11.7l0.1-1.6l5.2-4.3v0c0.8,0.4,1.5,0.9,2.2,1.4
	C58.5,67.5,58.6,68,58.8,68.4z"/>
<path class="st0" d="M54.1,17.4l3.9,8.1l4,0.6c-1.5,1.8-2.6,3.8-3.2,6.1c-0.1,0.5-0.2,1-0.3,1.4c-0.7,0.5-1.4,1-2.2,1.4l-5.2-4.3
	l-0.1-1.6L54.1,17.4z"/>
<polygon class="st0" points="58.7,76 62.4,75.5 54.6,85.4 54.4,84.7 "/>
<polygon class="st0" points="58.7,24.7 54.4,16 54.6,15.3 62.4,25.2 "/>
<path class="st0" d="M63.1,74.3c-1.6-1.8-2.8-3.9-3.4-6.2c1.7,1.7,3,3.8,3.7,6l-0.1,0.2H63.1z"/>
<path class="st0" d="M59.8,32.4c0.6-2.3,1.8-4.4,3.4-6.2l0.2,0l0.1,0.1C62.7,28.7,61.5,30.8,59.8,32.4L59.8,32.4z"/>
<path class="st0" d="M61.7,56.3l1.9,1.2l-0.1,0.8l-0.7,0.6l-1.9-1c0.1-0.3,0.3-0.5,0.4-0.8C61.3,56.8,61.5,56.6,61.7,56.3z"/>
<path class="st0" d="M63.4,42.2l0.1,0.9l-1.8,1.2c-0.2-0.3-0.3-0.5-0.5-0.8c-0.2-0.3-0.3-0.5-0.4-0.8l1.9-1L63.4,42.2z"/>
<path class="st0" d="M53.7,14.6l-3.5-7c1.9,0.1,3.7,0.6,5.3,1.3c1.7,0.8,3.2,1.9,4.5,3.2c2.6,2.7,4,6.3,4,10c0,0.7-0.1,1.4-0.2,2.1
	l-0.6,0.5l-9.2-11.6L53.7,14.6z"/>
<path class="st0" d="M64,78.5L64,78.5c0,3.7-1.4,7.3-4,10c-2.6,2.7-6.1,4.3-9.8,4.5l3.5-7l0.4,1.5l9.2-11.6l0.6,0.5
	C64,77.1,64,77.8,64,78.5z"/>
<path class="st0" d="M62.2,45l1.5-0.9l0.5,3C63.5,46.5,62.8,45.8,62.2,45z"/>
<path class="st0" d="M63.8,56.4l-1.5-0.9c0.6-0.8,1.3-1.5,2-2.1L63.8,56.4z"/>
<polygon class="st0" points="59.9,38 64.3,39.7 62.8,40.5 "/>
<polygon class="st0" points="64.4,60.9 60,62.5 62.9,60.1 "/>
<polygon class="st0" points="64.5,59.8 63.7,59.4 63.9,59.3 "/>
<polygon class="st0" points="63.7,41.1 64.5,40.7 63.9,41.3 "/>
<path class="st0" d="M64.5,51.9c-1.2,0.9-2.2,1.9-3.1,3.1L54,50.3l7.4-4.7c0.9,1.2,1.9,2.2,3.1,3.1l0.3,1.6L64.5,51.9z"/>
<polygon class="st0" points="65.2,58.5 64.4,58.3 64.5,58.1 "/>
<polygon class="st0" points="64.4,42.3 65.2,42.1 64.5,42.5 "/>
<polygon class="st0" points="66.1,57.9 64.7,57 65.3,53.3 "/>
<polygon class="st0" points="64.7,43.6 66.1,42.7 65.3,47.3 "/>
<polygon class="st0" points="66.3,40.4 66.5,40.5 66.4,40.7 65.8,40.9 "/>
<polygon class="st0" points="66.3,60.2 65.8,59.7 66.5,59.9 66.5,60.1 "/>
<path class="st0" d="M65.9,49.7c0.4,0.2,0.8,0.5,1.2,0.7c-0.4,0.2-0.8,0.4-1.2,0.7l-0.1-0.7L65.9,49.7z"/>
<path class="st0" d="M66.6,70.1l-2.5,3.1c-0.9-2.6-2.6-5-4.7-6.8c-0.1-0.9-0.2-1.7-0.2-2.6l6.3-2.3l1.5,0.7l8.6,8.4L66.6,70.1z"/>
<path class="st0" d="M64.2,27.4l2.5,3.1l9-0.6L67,38.3l-1.4,0.8l-6.3-2.3c0-0.9,0-1.7,0.1-2.6C61.6,32.3,63.2,30,64.2,27.4z"/>
<path class="st0" d="M70,50.3c1.3-0.3,2.6-0.5,3.9-0.5c1.1,0,2.2,0.1,3.2,0.4l0,0.1l-0.1,0.2C74.8,51,72.4,50.9,70,50.3L70,50.3z"/>
<polygon class="st0" points="76.7,71.8 77.2,72.3 64.7,74.1 67.1,71.2 "/>
<polygon class="st0" points="77.2,28.3 76.7,28.8 67.1,29.5 64.7,26.5 "/>
<path class="st0" d="M67.2,58.6L66.1,52c0.7-0.5,1.5-0.9,2.3-1.2c0.5,0.2,0.9,0.3,1.4,0.5c1.3,0.3,2.7,0.5,4.1,0.5
	c0.9,0,1.9-0.1,2.8-0.3l-1.5,3.7l5,7.5l-11.6-3.2L67.2,58.6z"/>
<path class="st0" d="M67.2,42l1.4-0.9l11.6-3.3l-5,7.5l1.5,3.7c-2.8-0.5-5.6-0.3-8.2,0.7c-0.8-0.3-1.6-0.7-2.3-1.2L67.2,42z"/>
<polygon class="st0" points="82.4,37.2 77.7,49 76.3,45.5 81.7,37.5 "/>
<polygon class="st0" points="77.7,51.7 82.4,63.4 81.7,63.2 76.3,55.2 "/>
<polygon class="st0" points="85.9,71.3 77.1,70.8 67.7,61.7 67.6,60.8 68.4,60.5 81,64 "/>
<polygon class="st0" points="67.7,39 77.1,29.8 85.9,29.3 81,36.6 68.4,40.1 67.6,39.8 "/>
<path class="st0" d="M78.2,71.9l7.8,0.5c-1.9,3-4.9,5.2-8.4,6.1l0-0.1c-4.5,1.2-9.2,0.2-12.8-2.7c0-0.2-0.1-0.5-0.1-0.7l14.7-2
	L78.2,71.9z"/>
<path class="st0" d="M79.3,27.6l-14.6-2.1c0-0.2,0.1-0.5,0.1-0.7c0.5-0.4,1.1-0.8,1.7-1.2c2.2-1.3,4.7-2,7.3-2
	c1.3,0,2.6,0.2,3.8,0.5c3.5,0.9,6.4,3.1,8.4,6.1l-7.8,0.5L79.3,27.6z"/>
<path class="st0" d="M86.9,71l-4.3-6.6l1.5,0.4l-5.5-13.8l0.7-0.3c3.8,1.5,6.8,4.6,8.2,8.4C89,63.1,88.7,67.3,86.9,71z"/>
<path class="st0" d="M82.5,36.2l4.3-6.5c1.7,3.3,2,7.2,1,10.7c-1,3.6-3.4,6.6-6.6,8.5c-0.6,0.3-1.2,0.7-1.9,0.9l-0.7-0.2L84,35.7
	L82.5,36.2z"/>
<path class="st0" d="M87.8,40.4c-1,3.6-3.4,6.6-6.6,8.5c-0.6,0.3-1.2,0.7-1.9,0.9l-0.7-0.2L84,35.7l-1.5,0.4l4.3-6.5
	C88.5,33,88.9,36.8,87.8,40.4z"/>
<polygon class="st0" points="82.4,63.4 81.7,63.2 76.3,55.2 77.7,51.7 "/>
<polygon class="st0" points="77.2,72.3 64.7,74.1 67.1,71.2 76.7,71.8 "/>
<polygon class="st0" points="53.3,84.5 49.4,92.5 45.5,84.5 48.8,71.8 49.4,71.2 50.1,71.8 "/>
<polygon class="st0" points="34.2,74.1 21.7,72.3 22.2,71.8 31.8,71.1 "/>
<polygon class="st0" points="22.6,55.1 17.2,63.1 16.5,63.4 21.2,51.7 "/>
<polygon class="st0" points="22.6,45.4 21.2,49 16.5,37.2 17.2,37.4 "/>
<polygon class="st0" points="34.2,26.5 31.8,29.5 22.2,28.8 21.7,28.3 "/>
<polygon class="st0" points="53.4,16.1 50.1,28.8 49.5,29.4 48.8,28.8 45.5,16.1 49.5,8.2 "/>
<polygon class="st0" points="77.2,28.3 76.7,28.8 67.1,29.5 64.7,26.5 "/>
<polygon class="st0" points="82.4,37.2 77.7,49 76.3,45.5 81.7,37.5 "/>
<path class="st0" d="M77.2,50.3l-0.1,0.2c-2.3,0.5-4.7,0.5-7-0.1H70c1.3-0.3,2.6-0.5,3.9-0.5c1.1,0,2.2,0.1,3.2,0.4L77.2,50.3z"/>
<path class="st0" d="M75.2,45.3l1.5,3.7c-2.8-0.5-5.6-0.3-8.2,0.7c-0.8-0.3-1.6-0.7-2.3-1.2l1.2-6.6l1.4-0.9l11.6-3.3L75.2,45.3z"/>
<polygon class="st0" points="64.5,59.8 63.7,59.4 63.9,59.3 "/>
<polygon class="st0" points="65.2,58.5 64.4,58.3 64.5,58.1 "/>
<path class="st0" d="M63.5,57.5l-0.1,0.8l-0.7,0.6l-1.9-1c0.1-0.3,0.3-0.5,0.4-0.8c0.2-0.3,0.3-0.5,0.5-0.8L63.5,57.5z"/>
<polygon class="st0" points="50.2,67.2 50.2,68.1 50,67.3 "/>
<polygon class="st0" points="50.4,63.9 50.3,66.1 49.5,66.4 48.6,66.1 48.5,63.9 "/>
<polygon class="st0" points="48.9,67.3 48.7,68.1 48.7,67.2 "/>
<polygon class="st0" points="34.5,58.3 33.7,58.5 34.4,58.1 "/>
<polygon class="st0" points="35.2,59.5 34.4,59.9 35,59.3 "/>
<path class="st0" d="M38.1,57.9l-1.9,1l-0.7-0.5l-0.2-0.9l1.9-1.2c0.2,0.2,0.3,0.5,0.5,0.8C37.9,57.4,38,57.7,38.1,57.9z"/>
<polygon class="st0" points="35.2,41.2 35,41.3 34.4,40.8 "/>
<polygon class="st0" points="34.5,42.3 34.4,42.5 33.7,42.1 "/>
<path class="st0" d="M38.1,42.7c-0.1,0.3-0.3,0.5-0.4,0.8c-0.1,0.3-0.3,0.5-0.5,0.8l-1.8-1.2l0.1-0.8l0.7-0.6L38.1,42.7z"/>
<polygon class="st0" points="48.9,33.3 48.6,33.4 48.6,32.5 "/>
<polygon class="st0" points="50.3,36.7 48.5,36.7 48.6,34.5 49.4,34.2 50.3,34.5 "/>
<polygon class="st0" points="50.2,32.5 50.2,33.4 50,33.3 "/>
<polygon class="st0" points="65.2,42.1 64.5,42.5 64.4,42.3 "/>
<polygon class="st0" points="64.5,40.7 63.9,41.3 63.7,41.1 "/>
<path class="st0" d="M63.5,43.1l-1.8,1.2c-0.2-0.3-0.3-0.5-0.5-0.8c-0.2-0.3-0.3-0.5-0.4-0.8l1.9-1l0.7,0.5L63.5,43.1z"/>
<path class="st0" d="M64.2,47.2c-0.7-0.6-1.4-1.3-2-2.1l1.5-0.9L64.2,47.2z"/>
<path class="st0" d="M60.8,55.8c-0.2,0.3-0.4,0.5-0.5,0.8c-0.2,0.3-0.3,0.6-0.4,0.9l-8.1-4.3l0.1-1.5l1.3-0.8L60.8,55.8z"/>
<polygon class="st0" points="52.2,50.3 50.9,51.1 50.8,52.7 49.5,52 48.1,52.7 48,51.1 46.7,50.3 48,49.5 48.1,48 49.4,48.7 
	50.8,48 50.8,49.5 "/>
<polygon class="st0" points="50.8,53.8 50.4,62.9 48.4,62.9 48.1,53.8 49.4,53.1 "/>
<path class="st0" d="M47.1,53.2L39,57.4c-0.1-0.3-0.3-0.6-0.4-0.8h0c-0.2-0.3-0.4-0.6-0.6-0.8l7.7-4.9l1.3,0.8L47.1,53.2z"/>
<path class="st0" d="M47.1,47.4L47,48.9l-1.3,0.8L38,44.8c0.2-0.3,0.4-0.5,0.5-0.8c0.2-0.3,0.3-0.6,0.5-0.9L47.1,47.4z"/>
<polygon class="st0" points="50.8,46.8 49.5,47.5 48.1,46.8 48.5,37.7 50.5,37.7 "/>
<path class="st0" d="M60.9,44.8l-7.7,4.9l-1.3-0.8l0-1.5l8.1-4.3c0.1,0.3,0.3,0.6,0.4,0.9C60.5,44.3,60.7,44.5,60.9,44.8z"/>
<path class="st0" d="M61.9,41l-1.5,0.8C60,40.9,59.7,40,59.5,39L61.9,41z"/>
<path class="st0" d="M59.5,42.3l-7.7,4.1l-0.3-8.7c1.4-0.2,2.9-0.6,4.2-1.1l1.5,0.5l1.2,1C58.5,39.5,58.9,40.9,59.5,42.3z"/>
<path class="st0" d="M54.2,35.9c-0.9,0.3-1.8,0.5-2.8,0.7h0l0-1.7L54.2,35.9z"/>
<path class="st0" d="M47.6,34.9l-0.1,1.7c-1-0.1-1.9-0.3-2.8-0.7L47.6,34.9z"/>
<path class="st0" d="M47.5,37.6l-0.3,8.7l-7.7-4.1c0.6-1.3,0.9-2.8,1.1-4.2l1.2-1l1.5-0.6C44.6,37,46,37.4,47.5,37.6z"/>
<path class="st0" d="M39.4,39c-0.2,1-0.5,1.9-0.8,2.8h0L37,41L39.4,39z"/>
<path class="st0" d="M36.6,45.1c-0.6,0.8-1.3,1.5-2,2.1l0.5-3L36.6,45.1z"/>
<path class="st0" d="M44.8,50.3L37.5,55c-0.9-1.2-1.9-2.2-3.1-3.1l-0.3-1.6l0.3-1.6c1.2-0.9,2.2-1.9,3.1-3.1L44.8,50.3z"/>
<path class="st0" d="M36.6,55.5L36.6,55.5l-1.5,0.9l-0.5-3C35.4,54,36,54.7,36.6,55.5z"/>
<path class="st0" d="M39.4,61.6l-2.4-2l1.5-0.8C38.9,59.7,39.2,60.6,39.4,61.6z"/>
<path class="st0" d="M47.5,63c-1.5,0.2-2.9,0.6-4.2,1.1l-1.5-0.6l-1.2-1c-0.2-1.5-0.6-2.9-1.1-4.2l7.7-4.1L47.5,63z"/>
<path class="st0" d="M47.6,65.7l-2.9-1.1c0.9-0.3,1.9-0.5,2.8-0.7v0L47.6,65.7z"/>
<path class="st0" d="M54.2,64.7l-2.9,1.1l0.1-1.7C52.3,64.1,53.3,64.3,54.2,64.7z"/>
<path class="st0" d="M59.5,58.3c-0.6,1.3-0.9,2.8-1.1,4.2l-1.2,1l-1.5,0.6c-1.3-0.6-2.8-1-4.2-1.1l0.4-8.7L59.5,58.3z"/>
<path class="st0" d="M61.9,59.6l-2.4,2c0.2-1,0.5-1.9,0.8-2.8L61.9,59.6z"/>
<path class="st0" d="M64.3,53.4l-0.5,3l-1.5-0.9C62.9,54.7,63.5,54,64.3,53.4z"/>
<path class="st0" d="M64.8,50.3l-0.3,1.6c-1.2,0.9-2.2,1.9-3.1,3.1L54,50.3l7.4-4.7c0.9,1.2,1.9,2.2,3.1,3.1L64.8,50.3z"/>
<polygon class="st0" points="66.1,42.7 65.3,47.3 64.7,43.6 "/>
<polygon class="st0" points="66.5,40.5 66.4,40.7 65.8,40.9 66.3,40.4 "/>
<polygon class="st0" points="64.3,39.7 62.8,40.5 59.9,38 "/>
<path class="st0" d="M58.3,36.4l-0.7-0.2l-0.5-0.4c0.4-0.2,0.8-0.5,1.2-0.7C58.3,35.4,58.2,35.9,58.3,36.4z"/>
<polygon class="st0" points="54.8,35.1 51.3,33.8 51.2,32.1 "/>
<polygon class="st0" points="49.6,30.8 49.5,31.5 49.3,30.8 49.5,30.7 "/>
<polygon class="st0" points="47.7,32.1 47.6,33.8 44.1,35.1 "/>
<path class="st0" d="M41.8,35.7l-0.6,0.4l-0.6,0.2V35C41,35.2,41.4,35.5,41.8,35.7z"/>
<polygon class="st0" points="39,38.1 36,40.5 34.5,39.7 "/>
<polygon class="st0" points="33.1,40.9 32.4,40.7 32.4,40.5 32.6,40.4 "/>
<polygon class="st0" points="34.2,43.6 33.6,47.3 32.8,42.7 "/>
<path class="st0" d="M33.1,50.3L33,51c-0.4-0.2-0.8-0.5-1.2-0.7c0.4-0.2,0.8-0.4,1.2-0.7L33.1,50.3z"/>
<polygon class="st0" points="34.2,57 32.8,57.9 33.6,53.3 "/>
<polygon class="st0" points="33.1,59.7 32.6,60.2 32.4,60.1 32.5,59.9 "/>
<polygon class="st0" points="39,62.5 34.6,60.9 36.1,60.1 "/>
<path class="st0" d="M40.6,65.6c0-0.5,0.1-0.9,0-1.4l0.7,0.2l0.5,0.4C41.4,65.1,41,65.4,40.6,65.6z"/>
<polygon class="st0" points="47.7,68.5 44.1,65.5 47.7,66.8 "/>
<polygon class="st0" points="49.6,69.8 49.5,70 49.3,69.8 49.5,69.2 "/>
<polygon class="st0" points="54.8,65.5 51.2,68.5 51.3,66.8 "/>
<path class="st0" d="M58.3,64.2v1.4c-0.4-0.3-0.8-0.5-1.2-0.7l0.6-0.4L58.3,64.2z"/>
<polygon class="st0" points="64.4,60.9 60,62.5 62.9,60.1 "/>
<polygon class="st0" points="66.5,59.9 66.5,60.1 66.3,60.2 65.8,59.7 "/>
<polygon class="st0" points="66.1,57.9 64.7,57 65.3,53.3 "/>
<path class="st0" d="M67.1,50.3c-0.4,0.2-0.8,0.4-1.2,0.7l-0.1-0.7l0.1-0.7C66.3,49.9,66.7,50.1,67.1,50.3z"/>
<polygon class="st0" points="85.9,29.3 81,36.6 68.4,40.1 67.6,39.8 67.7,39 77.1,29.8 "/>
<path class="st0" d="M75.6,29.9L67,38.3l-1.4,0.8l-6.3-2.3c0-0.9,0-1.7,0.1-2.6c2.2-1.8,3.8-4.1,4.7-6.8l2.5,3.1L75.6,29.9z"/>
<path class="st0" d="M63.4,26.4c-0.7,2.3-2,4.4-3.7,6.1v-0.1c0.6-2.3,1.8-4.4,3.4-6.2l0.2,0L63.4,26.4z"/>
<path class="st0" d="M62,26.1c-1.5,1.8-2.6,3.8-3.2,6.1c-0.1,0.5-0.2,1-0.3,1.4c-0.7,0.5-1.4,1-2.2,1.4l-5.2-4.3l-0.1-1.6l3-11.7
	l3.9,8.1L62,26.1z"/>
<polygon class="st0" points="62.4,25.2 58.7,24.7 54.4,16 54.6,15.3 "/>
<path class="st0" d="M47.8,29.1l-0.1,1.6L42.6,35c-0.8-0.4-1.5-0.9-2.2-1.4c-0.1-0.5-0.2-1-0.3-1.4c-0.6-2.2-1.7-4.3-3.2-6.1
	l3.9-0.6l4-8.1L47.8,29.1z"/>
<path class="st0" d="M39.2,32.5L39.2,32.5c-1.7-1.7-3-3.7-3.7-6l0.1-0.1h0.2C37.4,28,38.6,30.2,39.2,32.5z"/>
<polygon class="st0" points="44.5,16 40.2,24.6 36.5,25.2 44.3,15.3 "/>
<path class="st0" d="M39.7,36.7l-6.3,2.3l-1.4-0.8l-8.6-8.4l9,0.6l2.5-3.1c0.9,2.6,2.6,5,4.7,6.8C39.6,35,39.7,35.9,39.7,36.7z"/>
<polygon class="st0" points="31.3,39.9 30.5,40.2 17.9,36.6 13,29.2 21.8,29.8 31.2,39 "/>
<path class="st0" d="M32.8,48.6c-0.7,0.5-1.5,0.8-2.3,1.2c-0.5-0.2-0.9-0.3-1.4-0.5c-2.2-0.6-4.6-0.7-6.8-0.3l1.5-3.7l-5-7.5
	l11.6,3.3l1.4,0.9L32.8,48.6z"/>
<path class="st0" d="M28.9,50.3L28.9,50.3c-2.3,0.6-4.8,0.7-7.1,0.1l0-0.2l0.1-0.1c1-0.2,2.1-0.4,3.2-0.4
	C26.3,49.8,27.6,50,28.9,50.3z"/>
<path class="st0" d="M32.8,52l-1.1,6.6l-1.4,0.9l-11.6,3.3l5-7.5l-1.5-3.7c0.9,0.2,1.8,0.3,2.8,0.3c1.4,0,2.7-0.2,4.1-0.5
	c0.5-0.1,0.9-0.3,1.4-0.4C31.3,51.2,32.1,51.5,32.8,52z"/>
<polygon class="st0" points="31.3,60.8 31.2,61.6 21.8,70.8 13,71.4 17.9,64 30.5,60.5 "/>
<path class="st0" d="M39.7,64.3c0,0.7,0,1.4-0.2,2.1c-2.2,1.8-3.8,4.1-4.7,6.8l-2.5-3.1l-9,0.6l8.7-8.4l1.4-0.8l6.3,2.3
	C39.7,64,39.7,64.2,39.7,64.3z"/>
<path class="st0" d="M39.2,68.1L39.2,68.1c-0.6,2.4-1.8,4.5-3.4,6.2l-0.2,0l-0.1-0.1C36.2,71.9,37.5,69.8,39.2,68.1z"/>
<path class="st0" d="M47.8,71.5l-3,11.7l-3.9-8.1L37,74.5c1.5-1.8,2.6-3.8,3.2-6.1c0.1-0.5,0.2-1,0.3-1.4c0.7-0.5,1.4-1,2.2-1.4
	l5.1,4.3L47.8,71.5z"/>
<polygon class="st0" points="44.5,84.6 44.3,85.3 36.5,75.4 40.2,76 "/>
<path class="st0" d="M62,74.5l-4,0.6l-4,8.1l-2.9-11.7l0.1-1.6l5.2-4.3v0c0.8,0.4,1.5,0.9,2.2,1.4c0.1,0.5,0.2,1,0.3,1.4
	C59.4,70.7,60.5,72.7,62,74.5z"/>
<path class="st0" d="M63.4,74.1l-0.1,0.2h-0.2c-1.6-1.8-2.8-3.9-3.4-6.2C61.4,69.8,62.7,71.8,63.4,74.1z"/>
<polygon class="st0" points="62.4,75.5 54.6,85.4 54.4,84.7 58.7,76 "/>
<path class="st0" d="M75.6,70.7l-9-0.6l-2.5,3.1c-0.9-2.6-2.6-5-4.7-6.8c-0.1-0.9-0.2-1.7-0.2-2.6l6.3-2.3l1.5,0.7L75.6,70.7z"/>
<polygon class="st0" points="85.9,71.3 77.1,70.8 67.7,61.7 67.6,60.8 68.4,60.5 81,64 "/>
<path class="st0" d="M80.2,62.7l-11.6-3.2l-1.4-0.9L66.1,52c0.7-0.5,1.5-0.9,2.3-1.2c0.5,0.2,0.9,0.3,1.4,0.5
	c1.3,0.3,2.7,0.5,4.1,0.5c0.9,0,1.9-0.1,2.8-0.3l-1.5,3.7L80.2,62.7z"/>
<path class="st0" d="M78.2,28.7l1.1-1.1l-14.6-2.1c0-0.2,0.1-0.5,0.1-0.7c0.5-0.4,1.1-0.8,1.7-1.2c2.2-1.3,4.7-2,7.3-2
	c1.3,0,2.6,0.2,3.8,0.5c3.5,0.9,6.4,3.1,8.4,6.1L78.2,28.7z"/>
<path class="st0" d="M64,22.1c0,0.7-0.1,1.4-0.2,2.1l-0.6,0.5l-9.2-11.6l-0.4,1.5l-3.5-7c1.9,0.1,3.7,0.6,5.3,1.3
	c1.7,0.8,3.2,1.9,4.5,3.2C62.6,14.8,64,18.4,64,22.1z"/>
<path class="st0" d="M48.6,7.6l-3.5,7L44.8,13l-9.2,11.7L35,24.2c-0.1-0.7-0.2-1.4-0.2-2.1l0,0c0-3.7,1.4-7.3,4-10
	C41.4,9.4,44.9,7.8,48.6,7.6z"/>
<path class="st0" d="M19.5,27.6l1.1,1.1l-7.8-0.5c2-3,5-5.2,8.4-6.1l0,0c1.2-0.3,2.5-0.5,3.8-0.5c2.6,0,5.1,0.7,7.3,2
	c0.6,0.3,1.2,0.8,1.7,1.2c0,0.2,0.1,0.5,0.1,0.7L19.5,27.6z"/>
<path class="st0" d="M20.3,49.5l-0.7,0.2c-0.6-0.2-1.3-0.5-1.8-0.9C14.5,47,12.1,44,11,40.4c-1.1-3.6-0.7-7.4,1-10.8l4.3,6.5
	l-1.5-0.4L20.3,49.5z"/>
<path class="st0" d="M14.9,64.9l1.5-0.4L12,71c-1.7-3.3-2-7.2-1-10.8c1.1-3.6,3.5-6.6,6.7-8.5c0.6-0.3,1.2-0.6,1.9-0.9l0.7,0.3
	L14.9,64.9z"/>
<path class="st0" d="M34.2,75.1c0,0.2-0.1,0.5-0.1,0.7c-0.5,0.4-1.1,0.8-1.7,1.1c-3.2,1.9-7,2.4-10.7,1.6s-6.8-3.1-8.8-6.2l7.8-0.5
	L19.5,73L34.2,75.1z"/>
<path class="st0" d="M48.6,93c-3.7-0.2-7.2-1.8-9.8-4.5c-2.6-2.7-4-6.3-4-10v0c0-0.7,0.1-1.4,0.2-2l0.6-0.5l9.2,11.6l0.4-1.5
	L48.6,93z"/>
<path class="st0" d="M64.1,78.4c0,3.7-1.4,7.3-4,10c-2.6,2.7-6.1,4.3-9.8,4.5l3.5-7l0.4,1.5l9.2-11.6l0.6,0.5
	C64,77.1,64,77.8,64.1,78.4L64.1,78.4z"/>
<path class="st0" d="M86,72.4c-1.9,3-4.9,5.2-8.4,6.1l0-0.1c-4.5,1.2-9.2,0.2-12.8-2.7c0-0.2-0.1-0.5-0.1-0.7l14.7-2l-1.1-1.1
	L86,72.4z"/>
<path class="st0" d="M86.9,71l-4.3-6.6l1.5,0.4l-5.5-13.8l0.7-0.3c3.8,1.5,6.8,4.6,8.2,8.4C89,63.1,88.7,67.3,86.9,71z"/>
</svg>
