<?xml version="1.0" encoding="utf-8"?>
<!-- Generator: Adobe Illustrator 22.0.1, SVG Export Plug-In . SVG Version: 6.00 Build 0)  -->
<svg version="1.1" id="Layer_1" xmlns="http://www.w3.org/2000/svg" xmlns:xlink="http://www.w3.org/1999/xlink" x="0px" y="0px"
	 viewBox="0 0 904.4 723.8" style="enable-background:new 0 0 904.4 723.8;" xml:space="preserve">
<style type="text/css">
	.st0{fill:#FFFFFF;}
</style>
<g>
	<path class="st0" d="M34.4,231.9c0.8,0,1.6,0,2.4,0.1c0,3.1,0.2,6.1,0,9.2c-2,27.2-5.2,54.3-3,81.7c1.4,16.8,3.4,33.5,8.5,49.6
		c2.8,8.9,6.4,17.6,8.5,26.6c3.4,14.5-0.1,28.7-3.1,43c-1.8,8.7-3.3,17.9-2.4,26.6c0.9,8.5,5.6,16.6,7.8,25
		c4.3,16.7,8.4,33.6,12,50.5c4.7,22.3,5,44.6-0.5,66.9c-0.4,1.4-0.9,3.2-0.4,4.4c0.7,1.9,1.8,4.5,3.4,5.2c5.3,2.4,8.2,6.2,8.5,11.9
		c0.5,9,0.8,18,0.9,26.9c0.1,9.4,3.3,17.7,8.3,25.2c1.3,2,4,3.7,6.3,4.4c10.8,3.4,21.9,3.9,33.1,2.7c4.2-0.5,7.5-2,9.3-5.7
		c1.9-3.6,4.5-4,7.9-2.9c1.4,0.5,2.9,0.9,4.4,1.1c7,1.2,10.1-1.8,7.2-8.3c-4.1-9-8.7-18-14.4-26.1c-5.4-7.6-11.6-14.3-10.9-24.5
		c0.1-1.4-0.6-2.9-1.1-4.3c-7.2-22.9-14.2-45.8-16.2-69.9c-1.3-15.7-1.1-31.3,3.7-46.5c1.3-4,3.4-7.7,5.7-12.6
		c1.5,2.9,2.5,4.4,3.1,6.1c3.6,10,7,20.1,10.7,30.1c5.4,14.7,6.6,30.2,9,45.5c1.6,10.6,4.6,20.8,10.5,30c2,3.1,4.4,4.7,8.3,3.9
		c5.2-1,9.1,1.4,12,5.5c1.6,2.3,2.9,4.8,4.2,7.4c4.6,9.6,8.4,19.6,13.8,28.8c6,10.3,15.6,15.6,27.8,13.3c6.5-1.2,12.8-3.6,19-5.9
		c4.4-1.7,8.2-4.4,13.6-3c4.5,1.1,6.4-1.2,5.1-5.7c-1.6-5.5-3-11.6-6.3-16.1c-6-8.3-13.1-15.9-20.2-23.2
		c-5.5-5.7-12.7-9.9-17.7-15.9c-13.7-16.4-21.9-35.7-26.5-56.5c-1.2-5.3-1.7-10.7-2.6-16.5c7.9,2.2,10.6,0.5,12.3-7
		c0.2-0.8,0.3-1.6,0.4-2.5c0.6-4.6,1.2-9.2,1.9-13.9c1.1-7.8,3.1-9.9,10.6-11.8c7.1-1.7,14.3-3.3,21.4-5.2c2.6-0.7,4-0.2,5,2.3
		c1.5,3.5,2.7,7.4,5.3,10.1c2.1,2.3,6,4.2,8.9,4.1c4-0.2,4.5-4.6,4.4-7.9c-0.1-5.1-1.2-10.3-1.2-15.4c0-2.9,0.5-6.5,2.1-8.7
		c7-9.4,11.8-19.7,14.2-31.1c0.8-3.6,2.4-4.6,5.9-4c27.2,4.5,54.5,2.5,81.7,0.2c22.4-1.9,44.7-4.5,67.1-6.3
		c7.6-0.6,15.3,0.2,22.9,0.6c3.7,0.2,5.7,2.4,6,6.1c1,9.9,5.9,17.7,13.8,23.3c12.6,8.9,18.2,20.9,17.2,36
		c-0.8,10.8-1.9,21.5-3.3,32.3c-2.1,16.3-2.7,32.3,3.4,48.2c7,18.4,7.4,37.8,5.1,57.2c-1.6,13.9-3.5,27.8-5.3,41.6
		c-0.7,5,1.5,8.3,5.9,10.4c4.2,2,5.6,5.4,4.9,9.9c-0.7,4.1-1.3,8.2-1.5,12.4c-0.8,12.1-0.5,12.4,10.6,17c2.5,1,4.9,2.1,7.4,2.9
		c11.7,3.8,23.4,5,34.1-2.2c4.5-3,8.2-3.5,12.9-1.4c5.8,2.6,9,1,10-5.3c0.6-3.8,2.6-5,5.6-4.9c5.5,0.1,10.9,0.7,16.4,1.2
		c9.5,0.9,18.9,1,25.8-7c1.2-1.4,1.8-4.4,1.1-6.1c-2.8-6.8-6.8-13-13.5-16.8c-3.2-1.8-4.7-3.5-3.7-7.8c0.7-2.9-0.7-6.5-1.9-9.6
		c-2.1-5.6-5-10.9-7-16.5c-7.1-19.2-9.7-38.6-2.3-58.5c3.2-8.5,5.9-17.3,7.7-26.2c4.4-23,8.2-46.2,12.2-69.3
		c0.7-4.4,2.5-6.6,7.4-5.3c2,0.5,4.3,0.2,6.4-0.1c17.9-1.7,32.8-10.3,47.1-20.3c7.5-5.3,13-12.2,15.6-20.8
		c5.4-17.8,10.2-35.9,15.2-53.8c3.2-11.4,6.2-22.8,13.9-32.3c2.3-2.9,4.1-6.5,5-10c1-4,0.9-8.2,1.1-12.4c0.4-11.6,0.3-23.3,1.3-34.9
		c0.7-8.6,2.5-9.1,11-8.3c9.1,0.9,18.2,1,27.1-2.5c13-5,20.2-17.5,18-31.5c-1-6.7-2.1-13.5-1.8-20.3c0.6-14.1,6.2-26.9,12.7-39.2
		c4.3-8.2,6.6-16.6,6.8-25.8c0.1-6.1,1.5-12.1,6.3-16.4c4.2-3.7,4.9-7.2,2.4-12.2c-1.1-2.2-1.3-6.6,0.1-8c4.3-4.4,5.5-9.3,5.2-15
		c-0.1-1.4,0.3-2.8,0.5-4.7c2.8,0.9,5,1.6,7.2,2.3c-0.1-1.8-0.8-2.8-1.7-3.6c-7.7-6.4-7.9-6.9-5.1-16.5c2-6.9,3.5-7.7,10.5-5.5
		c7.4,2.4,14.8,5.1,22.2,7.4c4.4,1.4,8.6,0.6,12.3-2.4c10.3-8.4,20.6-16.9,30.8-25.4c4.9-4.1,9.7-8.1,14.4-12.4
		c5.6-5.2,5.5-10.3-1.4-13.3c-7.2-3.2-15-5.8-22.7-6.7c-14.5-1.5-29.2-1.6-43.9-2.3c-10-0.4-20.4-1.8-26.9,10
		c-7.2-6.3-13.9-12-20.3-17.9c-5-4.6-8.7-10.2-9.7-17.1C774,3.7,770.6,2,762.3,7.2c-0.4,0.2-0.9,0.2-1.6,0.4
		c-0.6-0.8-1.3-1.5-1.8-2.3c-2.3-4-5.1-4.4-9.2-2.2c-2.2,1.2-5.5,1.4-8,0.8c-12.4-2.9-25-4.5-37.7-3.5c-12.6,1-24.2,4.1-29.5,17.6
		c-0.2,0.5-0.8,1.1-1.4,1.3c-4.4,2.1-8.8,4.3-13.3,6.2c-7.9,3.5-15.8,6.9-23.9,10.1c-2.2,0.9-4.8,1.1-7.1,1.1
		c-5.5-0.1-11-1.3-16.4-0.8c-19.7,1.8-36.8,11-53.9,20c-3.7,1.9-5.2,4.3-4,8.4c0.8,2.7-0.1,4.3-3.1,5c-18.4,4.7-36.7,9.8-55.1,14.3
		c-4.4,1.1-9.3,1.4-13.8,0.7c-11.6-2-23.2-4.5-34.7-7.4c-22.5-5.6-44.9-11.7-68.4-10.8c-16.3,0.6-32.6,1.2-48.9,1.9
		c-22.7,1-44.8-0.1-65.7-10.9c-10.9-5.6-22.7-9.7-34.3-13.7c-11.6-4-24.2-7.5-35.7-2.4c-9.4,4.1-16.5,1.8-24.4-1.8
		c-2.9-1.3-5.8-2.4-8.8-3.6c-19.7-8.2-39.5-15.7-60.6-20c-14-2.8-24.4,0.7-32.6,12.3C63.8,34.5,58.3,40,49.7,42.6
		c-9.2,2.9-15.4,10.2-18.5,19.6c-2.3,7.1-4.8,14.2-7.1,21.3C12.1,121.5,5.5,160.3,4.2,200c-0.7,23.4,0.3,47,0.6,70.4
		c0.3,24.2,0.6,48.3,1.1,72.4c0.4,17.8,1.3,35.6,1.8,53.4c0.5,18.6,0.9,37.3,1.2,55.9c0,2.2-0.8,4.6-1.7,6.7
		c-4.3,10.7-7.5,21.7-7.2,33.5c0.4,17.2,10.9,28,28,28.9c1.4,0.1,2.8-0.7,4.1-1c-0.3-1.2-0.7-2.4-1-3.6c-0.6-3-1.7-6.1-1.7-9.2
		c0.1-5,1-9.9,1.4-14.9c1.1-14.2,1.5-28.4-7.1-41c-1.2-1.7-1.5-4.4-1.5-6.6c0.1-11.3,0.5-22.6,0.8-34c0.7-25.3,0.9-50.6,2.1-75.9
		c1.2-25.8,3.2-51.5,5.2-77.2C31.2,249.1,33,240.5,34.4,231.9z"/>
	<path d="M34.4,231.9c-1.3,8.7-3.2,17.3-3.9,26c-2,25.7-4,51.4-5.2,77.2c-1.2,25.3-1.5,50.6-2.1,75.9c-0.3,11.3-0.7,22.6-0.8,34
		c0,2.2,0.3,4.9,1.5,6.6c8.7,12.6,8.2,26.7,7.1,41c-0.4,5-1.3,9.9-1.4,14.9c0,3,1,6.1,1.7,9.2c0.3,1.2,0.6,2.4,1,3.6
		c-1.4,0.4-2.8,1.1-4.1,1c-17.1-0.9-27.6-11.7-28-28.9c-0.3-11.7,2.9-22.7,7.2-33.5c0.9-2.1,1.7-4.5,1.7-6.7
		c-0.3-18.6-0.7-37.3-1.2-55.9c-0.5-17.8-1.4-35.6-1.8-53.4c-0.5-24.1-0.8-48.3-1.1-72.4c-0.3-23.5-1.3-47-0.6-70.4
		c1.3-39.6,7.9-78.5,19.9-116.4c2.3-7.1,4.8-14.2,7.1-21.3c3.1-9.5,9.3-16.8,18.5-19.6c8.6-2.6,14-8.1,18.8-14.7
		c8.2-11.5,18.6-15.1,32.6-12.3c21.1,4.3,40.9,11.9,60.6,20c2.9,1.2,5.9,2.4,8.8,3.6c7.9,3.5,15.1,5.9,24.4,1.8
		c11.5-5.1,24.1-1.7,35.7,2.4c11.6,4.1,23.4,8.1,34.3,13.7c20.9,10.8,43,12,65.7,10.9c16.3-0.7,32.6-1.3,48.9-1.9
		c23.5-0.9,45.9,5.2,68.4,10.8c11.5,2.9,23,5.4,34.7,7.4c4.4,0.8,9.4,0.4,13.8-0.7c18.4-4.5,36.7-9.6,55.1-14.3c3-0.8,3.9-2.3,3.1-5
		c-1.2-4.1,0.4-6.5,4-8.4c17.1-8.9,34.2-18.2,53.9-20c5.4-0.5,10.9,0.7,16.4,0.8c2.4,0.1,4.9-0.2,7.1-1.1c8-3.2,16-6.6,23.9-10.1
		c4.5-2,8.9-4.1,13.3-6.2c0.6-0.3,1.2-0.8,1.4-1.3C679.7,4.4,691.4,1.3,704,0.3c12.7-1,25.3,0.6,37.7,3.5c2.5,0.6,5.8,0.4,8-0.8
		c4.1-2.2,6.9-1.8,9.2,2.2c0.5,0.8,1.2,1.5,1.8,2.3c0.7-0.1,1.2-0.1,1.6-0.4c8.3-5.2,11.7-3.5,13.2,6.2c1,6.9,4.8,12.4,9.7,17.1
		c6.4,6,13.1,11.6,20.3,17.9c6.5-11.9,16.9-10.4,26.9-10c14.6,0.6,29.3,0.7,43.9,2.3c7.7,0.8,15.5,3.5,22.7,6.7
		c6.9,3,7.1,8.1,1.4,13.3c-4.7,4.3-9.5,8.4-14.4,12.4c-10.2,8.5-20.5,17-30.8,25.4c-3.6,3-7.8,3.8-12.3,2.4
		c-7.4-2.4-14.8-5-22.2-7.4c-6.9-2.2-8.5-1.4-10.5,5.5c-2.8,9.6-2.6,10.1,5.1,16.5c0.9,0.7,1.6,1.8,1.7,3.6
		c-2.2-0.7-4.4-1.4-7.2-2.3c-0.2,1.9-0.5,3.3-0.5,4.7c0.3,5.7-1,10.6-5.2,15c-1.4,1.4-1.2,5.8-0.1,8c2.5,5.1,1.7,8.5-2.4,12.2
		c-4.8,4.2-6.1,10.2-6.3,16.4c-0.2,9.2-2.5,17.6-6.8,25.8c-6.5,12.3-12,25.1-12.7,39.2c-0.3,6.7,0.7,13.6,1.8,20.3
		c2.2,13.9-5,26.5-18,31.5c-8.9,3.4-18,3.4-27.1,2.5c-8.6-0.8-10.3-0.3-11,8.3c-1,11.6-0.9,23.3-1.3,34.9c-0.2,4.1-0.1,8.4-1.1,12.4
		c-0.9,3.6-2.7,7.2-5,10c-7.7,9.5-10.7,21-13.9,32.3c-5,17.9-9.8,36-15.2,53.8c-2.6,8.6-8.1,15.6-15.6,20.8
		c-14.3,10-29.2,18.6-47.1,20.3c-2.1,0.2-4.4,0.6-6.4,0.1c-4.9-1.3-6.7,0.9-7.4,5.3c-4,23.1-7.8,46.3-12.2,69.3
		c-1.7,8.9-4.5,17.7-7.7,26.2c-7.4,19.9-4.8,39.3,2.3,58.5c2.1,5.6,4.9,10.9,7,16.5c1.1,3.1,2.6,6.7,1.9,9.6
		c-1.1,4.3,0.5,5.9,3.7,7.8c6.6,3.8,10.6,10,13.5,16.8c0.7,1.6,0.1,4.7-1.1,6.1c-6.9,8-16.3,8-25.8,7c-5.5-0.5-10.9-1.1-16.4-1.2
		c-3-0.1-5,1.1-5.6,4.9c-0.9,6.3-4.1,7.9-10,5.3c-4.8-2.1-8.5-1.6-12.9,1.4c-10.7,7.3-22.4,6-34.1,2.2c-2.5-0.8-5-1.9-7.4-2.9
		c-11.1-4.6-11.4-4.9-10.6-17c0.3-4.1,0.9-8.3,1.5-12.4c0.7-4.5-0.7-7.9-4.9-9.9c-4.4-2.1-6.6-5.3-5.9-10.4
		c1.8-13.9,3.6-27.7,5.3-41.6c2.3-19.4,1.9-38.8-5.1-57.2c-6.1-15.9-5.5-31.9-3.4-48.2c1.4-10.7,2.5-21.5,3.3-32.3
		c1.1-15.1-4.5-27.1-17.2-36c-7.9-5.6-12.9-13.4-13.8-23.3c-0.4-3.7-2.4-5.9-6-6.1c-7.6-0.4-15.3-1.2-22.9-0.6
		c-22.4,1.8-44.7,4.5-67.1,6.3c-27.2,2.3-54.5,4.3-81.7-0.2c-3.5-0.6-5.2,0.4-5.9,4c-2.5,11.4-7.2,21.7-14.2,31.1
		c-1.7,2.2-2.1,5.8-2.1,8.7c0,5.1,1.1,10.3,1.2,15.4c0.1,3.3-0.4,7.7-4.4,7.9c-3,0.1-6.8-1.8-8.9-4.1c-2.5-2.7-3.8-6.6-5.3-10.1
		c-1.1-2.5-2.4-3-5-2.3c-7.1,1.9-14.2,3.5-21.4,5.2c-7.5,1.8-9.5,4-10.6,11.8c-0.7,4.6-1.3,9.2-1.9,13.9c-0.1,0.8-0.2,1.6-0.4,2.5
		c-1.7,7.5-4.4,9.2-12.3,7c0.9,5.7,1.4,11.2,2.6,16.5c4.6,20.8,12.9,40,26.5,56.5c5,6,12.2,10.2,17.7,15.9
		c7.2,7.4,14.2,15,20.2,23.2c3.3,4.5,4.7,10.6,6.3,16.1c1.3,4.5-0.6,6.9-5.1,5.7c-5.4-1.4-9.2,1.4-13.6,3c-6.2,2.3-12.5,4.7-19,5.9
		c-12.2,2.3-21.8-3-27.8-13.3c-5.3-9.2-9.2-19.2-13.8-28.8c-1.2-2.5-2.6-5.1-4.2-7.4c-2.9-4.1-6.8-6.5-12-5.5
		c-3.9,0.8-6.3-0.8-8.3-3.9c-5.9-9.2-8.8-19.4-10.5-30c-2.4-15.3-3.6-30.8-9-45.5c-3.7-10-7.1-20.1-10.7-30.1
		c-0.6-1.7-1.6-3.2-3.1-6.1c-2.3,4.9-4.4,8.6-5.7,12.6c-4.8,15.2-5,30.8-3.7,46.5c2,24.1,9,47,16.2,69.9c0.4,1.4,1.2,2.9,1.1,4.3
		c-0.8,10.2,5.4,16.9,10.9,24.5c5.8,8,10.3,17,14.4,26.1c2.9,6.4-0.2,9.4-7.2,8.3c-1.5-0.2-2.9-0.6-4.4-1.1c-3.4-1.2-6-0.7-7.9,2.9
		c-1.9,3.7-5.2,5.3-9.3,5.7c-11.2,1.2-22.3,0.7-33.1-2.7c-2.4-0.8-5-2.4-6.3-4.4c-5.1-7.6-8.2-15.9-8.3-25.2c-0.1-9-0.4-18-0.9-26.9
		c-0.3-5.7-3.2-9.5-8.5-11.9c-1.6-0.7-2.7-3.3-3.4-5.2c-0.5-1.3,0.1-3,0.4-4.4c5.5-22.3,5.2-44.6,0.5-66.9
		c-3.6-16.9-7.6-33.7-12-50.5c-2.2-8.5-6.9-16.5-7.8-25c-0.9-8.7,0.5-17.9,2.4-26.6c3-14.3,6.6-28.4,3.1-43
		c-2.1-9-5.7-17.7-8.5-26.6c-5-16.2-7.1-32.8-8.5-49.6c-2.2-27.4,0.9-54.5,3-81.7c0.2-3,0-6.1,0-9.2
		C35.9,231.9,35.1,231.9,34.4,231.9z M54.9,379.3c1,5.3,1.5,11.6,3.6,17.3c3.1,8.8,3.7,17.7,1.8,26.5c-2,9.1-4.6,18-7.5,26.9
		c-2.7,8.3-2.5,16.2,0,24.5c6.2,20.5,13,41,17.9,61.9c5.7,24.3,7.2,49,1.8,73.8c-0.4,1.9,0.4,4.9,1.7,6.3
		c8.1,8.5,11.6,18.4,10.2,30.1c-0.1,0.8-0.3,1.9,0.1,2.5c1.1,1.5,2.3,3.8,3.8,4c7.1,1,14.2,1.6,21.3,2.2c10.4,0.9,10.4,0.8,14.5-8.7
		c0.6-1.3,0.4-3.1,0.1-4.6c-0.5-2.4-2-4.9-1.8-7.2c0.5-8.4-2.4-15.7-5.4-23.4c-11.1-28.9-14.3-59.2-11.9-89.9
		c1.8-22.8,6.6-45.1,16.2-66.1c5.7-12.4,11.3-25,12.1-38.9c0.6-10.6,0.1-21.3,0.8-32c0.5-8.3,1.4-16.6,3.3-24.6
		c2-8.3,10.2-11.1,17.3-6.2c4.2,2.9,8.1,6.4,11.5,10.2c10.6,11.6,22,22.3,34.9,31.3c29.7,20.8,63.2,30.1,99,32
		c25.7,1.4,51.2-1.1,76.7-4.4c14.7-1.9,29.4-3.8,44.1-5.1c11.5-1.1,22.9-0.2,34.8,4.7c-0.4-5.5-0.1-10.2-1.1-14.6
		c-1.8-7.7-3.4-15.8-7.1-22.6c-5-9.3-13.5-11-22.6-5.7c-6,3.5-11.7,7.7-17.2,12c-16.8,13.4-34.9,24.1-56.3,27.8
		c-10.5,1.8-21.2,2.3-31.8,2.9c-19.2,1.1-38-0.4-55.4-9.5c-1.5-0.8-2.8-1.8-4.2-2.7c7.5,1.6,14.5,4.4,21.7,6.1
		c16.2,3.9,32.7,3.5,49.1,1.8c9.4-0.9,19-1.6,28.1-3.8c17.2-4.2,31.4-14.3,45.3-24.8c7-5.3,14.4-10.3,22.1-14.4
		c8.7-4.7,16.1-2.7,22.9,4.6c5.8,6.2,8.9,13.7,9.9,22c1.1,8.9,2,17.9,1.9,26.9c-0.2,11.3,3.8,19.6,13.9,25.1
		c8.6,4.7,13.7,12,15.1,21.7c0.5,3.8,1.4,7.7,1,11.4c-1.5,13.9-3.4,27.7-5.2,41.6c-1.8,14.3-3,28.5,3.3,42.2c2.1,4.4,3.9,9.5,4,14.3
		c0.4,14.1,0,28.2-0.4,42.3c-0.3,12.8-1.2,25.6-1.4,38.4c-0.1,5.1,1.4,10,5.9,13.2c3.8,2.7,5,6.4,5.1,10.8c0.1,2.9,0,5.8,0,8.2
		c7.4-2.5,14.1-6.8,20.7-6.5c9.8,0.3,15.8-8.1,25.1-7.2c-0.3-7.2-3.1-12.4-7.8-16.4c-6.6-5.6-10.6-12.8-11.3-21.1
		c-1.2-14.2-1.5-28.6-1.8-42.8c-0.3-15.1,3.6-29.2,12.2-41.5c7.4-10.5,8.5-22,8.4-34.2c-0.1-18-0.9-36,0.2-53.9
		c1.3-20.2,8.6-38.3,24.1-52.2c1.4-1.3,3.2-2.1,4.8-3.2c0.5,0.5,0.9,1,1.4,1.5c-1.3,1.9-2.4,4.1-4,5.8c-6.1,6.9-11.7,14.2-14.5,23.1
		c-2.4,7.5-1.6,8.6,6,9.6c2,0.3,4,0.5,5.9,0.8c5.7,0.6,10.7,2.3,15.5,5.9c11.5,8.7,24.8,12.9,39.2,12.7c15.5-0.2,28.8-5.9,39.8-17.1
		c4.5-4.7,4.7-6.4-0.5-10.8c-5.1-4.3-10.5-8.4-14.7-13.4c-13.4-15.8-15.5-29.2-6.9-45.4c2.3-4.4,5.4-8.4,7.8-12.8
		c0.9-1.7,1.5-4.3,0.8-6c-4.4-10.8-1.4-20.6,3.7-30.2c0.8-1.5,3-2.5,4.7-3.1c5.1-2,10.7-3,15.3-5.8c12.6-7.5,24.8-15.6,37-23.7
		c1.6-1,2.8-3.2,3.3-5c0.9-3.7,1.4-7.6,1.4-11.4c0-1.5-1.5-3.8-2.8-4.3c-3.9-1.5-7.9-2.7-12-3.2c-9.9-1.2-14.3-7.6-16.5-16.3
		c-2.3-9.2-0.5-18.2,1.6-27.2c0.5-2,0.7-4.4-0.1-6.2c-5.1-11.6-9.4-23.7-16-34.3c-10-16.2-13.8-33.9-14.2-52.2
		c-0.2-7.9-0.7-15.3-3.3-22.7c-1-2.8-2.2-3.4-4.7-2.3c-2.3,1.1-4.7,2.2-7,3.2c-0.2-0.4-0.5-0.7-0.7-1.1c1.5-1.4,3.2-2.6,4.5-4.1
		c1-1.2,2.5-3.2,2.1-4c-1.8-3.7,0.8-6.3,1.5-9.4c1-3.8,1.6-8,1.1-11.9c-0.5-4.1-3.5-5.5-7.4-3.4c-4.5,2.4-9.1,4.8-13.5,7.5
		c-11.4,7-22.6,6.9-33.8-0.3c-4.5-2.9-8.9-5.8-13.2-8.9c-6.9-5-13.7-10.1-20.4-15.2c-4.6-3.5-9.5-4.6-15-2.7
		c-11.7,3.8-23.4,7.7-35.1,11.5c-14.6,4.7-29.3,7.6-44.6,3.4c-2.7-0.7-4,0.3-4.9,2.7c-1.9,5.4-5.8,8.6-10.8,11.1
		c-3.8,1.9-7.4,4.5-10.6,7.3c-5.2,4.6-9.7,10.2-15.1,14.5c-12.3,9.8-26,12.6-40.5,5c-5.9-3-11.3-7.1-17-10.4c-1.2-0.7-3.2-1-4.5-0.5
		c-11.1,4.1-21,1-30.3-5c-1.2-0.8-2.5-2.5-2.6-3.9c-0.9-10.2-6.4-18.4-11.1-27c-2.2-4-4.9-5.2-9.5-5.5c-17.8-1.1-35.7-1.7-53.1-4.6
		c-40.7-6.8-78.9-21.7-116.6-38c-13.6-5.9-27-12.4-41.8-14.9c-15-2.6-28.4,4.9-32,17.5C74.6,41,81.6,43.7,87,48.3
		c6.7,5.7,13.6,10.1,22.1,11.8c1,0.2,1.9,0.7,2.8,1.1c-1.1,0.7-2.1,0.8-3,0.7c-10.8-1-19.8-5.9-28.5-12.3c-3.9-2.8-9.3-4.8-14.2-5
		c-16-0.7-27.1,7.8-32.2,23.8c-6.2,19.5-5.9,39.8-5.4,59.9c0,2.2,3.4,5.6,5.9,6.3c18.5,5.4,28.1,18.5,32.9,36.3
		c5.3,19.7,4.7,39.6,2.3,59.5c-1.1,8.8-0.9,16.9,2.9,25.2c5,11,6.5,22.2-1.2,33.3c-3.6,5.3-0.9,13.9,3.3,16.5
		c3.5,2.3,7.5,4.8,9.6,8.3c4.7,7.8,9.3,15.9,12.4,24.4c3.9,10.7,4.9,22.1,2.6,33.5c-1.9,9.4-7.9,14.9-17.2,13.9
		C73,384.4,64.3,381.5,54.9,379.3z M609.7,48.8c0-0.7,0-1.4,0.1-2.1c2.2-0.4,4.5-1.6,6.5-1.2c18.5,3.3,34,12.2,46.5,26.2
		c2.7,3,1.8,5.5-1.7,7.1c-2,0.9-4.2,1.3-6,2.3c-1.2,0.6-2,2-2.9,3c1.2,0.9,2.4,2.6,3.7,2.7c4.5,0.4,9,0.6,13.5,0.2
		c7.1-0.5,12,2.7,16.5,7.6c10.1,11.2,14.7,24.7,17.4,39.2c0.9,4.7,0.5,9-1.3,13.6c-1.7,4.1-2.6,8.7-2.6,13.1
		c0.1,9.6,0.4,19.4,1.9,28.9c3,19.2-0.3,37.4-5.9,55.6c-2.2,7.4-3,15.2-4.2,22.9c-0.7,4.5,1.9,7,4.9,8c2.6-3.5,4.9-6.3,6.8-9.4
		c0.8-1.3,1.5-3.6,0.9-4.8c-1.2-2.5-3.4-4.4-4.9-6.8c-1-1.5-2.5-4-1.9-4.9c1-1.4,3.4-2.6,5.1-2.5c3.6,0.3,7.1,1.6,10.7,2.3
		c4.5,0.9,8.7,0.2,10.2-4.7c1.2-3.7,3.4-4.7,6.8-5.3c5-0.8,8.9-3.1,10.2-8.9c0.4-1.7,3.2-4.2,4.6-4c3.2,0.4,6.9,1.6,9.2,3.7
		c3.1,2.9,4.7,7.3,7.5,10.5c4.4,5,5.2,9.6,1.2,15.2c-1.5,2.1-2.2,4.8,1.2,6.7c5.5,3.2,5.9,6.3,2.5,11.5c-1.2,1.8-2.2,3.6-3.3,5.5
		c0.6,0.3,1.1,0.6,1.7,0.9c1.7-3.1,4.4-6,5-9.2c1-5.8,1.5-12,0.6-17.8c-1.8-11.8-4.7-23.5-6.9-35.3c-2.9-15.3-4.2-30.5-0.8-46.1
		c1.3-6,0.3-12.4,0.1-18.7c-0.2-3.8-1.6-7.6-1.3-11.3c0.6-10.3,1.8-20.5,2.9-30.8c0.2-1.8,1.1-3.5,1.8-5.2c2.1-5.2,4-10.6,6.7-15.5
		c1.4-2.6,3.7-5.2,6.3-6.5c3-1.5,6.7-2.2,10.1-2.2c11.2-0.2,11.4-2.2,14.3-12.9c1.5-5.6,4.5-9.1,9.1-11.7
		c10.4-5.9,21.6-8.4,33.5-8.6c4.1-0.1,8.1,0,9.7,4.7c2-0.6,3.5-1.2,5.1-1.6c11.6-2.8,23-5,32.5,5.6c0.6,0.7,4,0.2,4.9-0.8
		c0.8-0.9,0.6-3.9-0.3-4.8c-5.2-5.2-11.9-7-19.1-7.3c-12.8-0.4-25.6-0.3-38.4-1.2c-11.5-0.8-22.9-3.6-31.4,8
		c-2.5,3.5-6.7,2.3-9.7-0.7c-5.1-5-10.4-9.9-15.1-15.2c-5.4-6.1-10.5-12.5-11.9-21c-1-6.3-1.7-6.6-7.1-3.4c-2.3,1.3-5.1,3.4-7,0.2
		c-2.2-3.9-4.9-3.6-8.4-2.7c-1.9,0.5-4,0.4-5.9,0.1c-9.1-1.2-18.1-3.3-27.2-3.7C708.4,5,699.9,5.6,692,7.4c-4.4,1-10.5,4.9-11.3,8.5
		c-0.9,4.4-2.2,6.6-5.8,8.4c-0.8,0.4-0.9,2-1.4,3.1c-0.5,1-0.7,2.7-1.5,3c-6.2,2.7-7.9,8.7-10.8,13.8c-3.4,6.1-6.3,7.6-13.1,6.2
		c-3.9-0.8-7.7-2.3-11.2-4.1c-10.5-5.3-21.4-6.9-32.4-2.8c-13.9,5.1-27.6,10.9-41.3,16.5c-1,0.4-2.1,1.8-2.1,2.8
		c-0.2,4.5,5.2,10.2,10.5,11.2c-2.5-5.8,2.6-7.4,5.6-9.9c-1.5-6.4-0.5-8,5.5-9.3c1.6-0.3,3.3-0.6,5-0.5c11,0.5,21.9,1.1,32.9,1.6
		c2.2,0.1,4.3,0,6.5,0c0.1-0.5,0.1-1,0.2-1.5C621.4,52.5,615.6,50.7,609.7,48.8z M137.2,494.6c0.6,0.1,1.1,0.1,1.7,0.2
		c0.8-1.5,1.7-3.1,2.4-4.7c1.9-4.1,3.4-8.3,5.6-12.3c2.2-3.9,5.5-5.3,10.1-3.7c6.7,2.3,13.6,4.4,20.5,6.1c3.7,0.9,6.2,2.1,6.1,6.4
		c-0.1,4.5-0.2,9,0.2,13.4c0.3,4.3,0.9,8.5,1.8,12.7c0.2,1.2,2,2.9,2.8,2.8c1.3-0.2,3.1-1.5,3.6-2.8c1-2.9,1.6-6.1,1.9-9.2
		c0.3-4.1-0.1-8.3,0.1-12.5c0.5-7.5,3.2-9.7,10.3-11.6c9-2.4,18-4.8,26.4-8.6c14.6-6.6,24.5-17.9,29.3-33.5c1.3-4.2,0.6-6.2-4.2-7.3
		c-16.9-3.8-32.6-10.5-47.2-19.7c-16.5-10.4-30.6-23.3-42.8-38.6c-1.2-1.5-3.5-3.2-5.2-3.1c-6.8,0.3-12.9,2.9-16.1,9.3
		c-2.1,4.4-3.6,9.4-4.2,14.3c-2.5,21.1-2.7,42.6-13.8,61.9c-1.8,3.1-1.1,6.8,2.3,8.8c6.2,3.5,7.9,9,7.4,15.6
		c-0.3,3.6-0.2,7.3-0.1,11C136.3,491.3,136.8,493,137.2,494.6z M37.1,312c1.6,12.6,2.6,24,4.7,35.3c2,10.5,4.7,21.2,15.4,26.7
		c5.3,2.7,11,4.8,16.8,6.2c11.1,2.7,18.1-1.9,20.8-12.9c3.2-13.3,0.3-25.8-5.3-37.8c-4.2-9.1-8.7-18.1-19-22.1
		c-1.5-0.6-2.8-2.9-3.4-4.7c-2-5.9-1.7-11.9,1.3-17.4c6-11,5.8-21.8-1-32.1c-4.2-6.4-5.7-12.6-2.6-19.7c0.7-1.5,1-3.2,1.2-4.8
		c2-18.6,1.5-37.4-2.1-55.6c-3-15-11.4-27.3-27-32.9c-4.8-1.7-7.1,0.1-6.3,5.2c3.7,26.5,8,53,11.1,79.6c1.6,13.5,2,27.2,1.2,40.7
		C41.9,281.4,39,297.1,37.1,312z M550.1,666.9c0.9,2.4,1.9,5.8,3.4,8.9c1.8,3.5,4.1,4.2,8.1,2.1c3.3-1.8,7.6-2.4,11.4-2.3
		c3.7,0,7.5,1.3,11.2,2.4c2.8,0.8,4.3-0.1,5.7-2.4c3-5.2,3.5-10.3,0.7-15.7c-6.3-11.8-8.5-24.8-10.4-37.8c-2-14.2-1.2-27.7,5.9-40.7
		c3.1-5.7,4.9-12.5,5.6-19c2.6-25.3,2.4-50.9,9.3-75.7c0.3-1-0.9-3.5-1.8-3.6c-6.3-1.3-10.6-5.6-14.7-9.9c-4.8-4.9-10.8-7-17.2-8.3
		c-3.1-0.6-4.7,0.5-6.2,3.4c-3.7,7.2-4.2,14.9-4.7,22.7c-1.2,19.3-2.5,38.5-3.6,57.8c-0.1,1.5-0.2,3.2,0.5,4.4
		c6,11.1,5.3,22.8,3.4,34.6c-2.4,15.5-5.6,30.8-7.6,46.3c-0.5,4.2,1.9,8.7,3,13.1c0.3,1.3,0.8,2.8,0.6,4.1
		C552,656.1,551.1,661,550.1,666.9z M126.3,467.1c-3.2,6.2-5,11.7-1.5,18.6c12.1,23.9,19.9,49.3,24.6,75.7c2,11.1,4.1,22.2,6.4,33.3
		c1,5,4.2,7.3,9.6,7.8c3.1,0.3,6.9,2.1,8.9,4.5c5,6,9,12.7,13.8,18.9c1.3,1.6,3.9,2.8,5.9,3c5.3,0.5,10.6,0,15.9,0.3
		c7.1,0.4,14.1,1.3,21.5,2c-0.2-2.9-1-5.8-0.6-8.5c0.9-6.1-2.2-10.2-6.4-13.7c-2.8-2.3-6-4.2-8.9-6.3c-2.5-1.8-5.9-3.2-7.4-5.7
		c-6.6-11.1-14.4-22-18.5-34.1c-8.1-24.1-14-48.9-20.6-73.5c-0.9-3.5-2.3-5.7-5.7-6.7c-2.2-0.6-4.4-1.9-6.7-2c-1.5-0.1-4,0.8-4.6,2
		c-1.8,3.4-2.7,7.1-4.1,10.7c-2,5.1-5.6,7.3-10.5,6.3c-5-1.1-5.7-5.1-5.7-9.3c-0.1-4.7,0.1-9.3,0.2-14
		C132.2,472.3,130.5,469.4,126.3,467.1z M717,314c-2.5,0.9-3.2,1.1-3.7,1.4c-8.9,5.5-17.8,11.1-26.8,16.5c-7.8,4.7-14.7,11-24.4,12
		c-1.1,0.1-2.4,1.3-3,2.3c-3.6,6.6-5.9,13.8-2.7,21c2.5,5.7,1.4,10.2-1.8,14.9c-1.6,2.3-2.8,5-4.5,7.2c-10.4,12.9-7.9,29.2,1.6,41
		c6.5,8,14.8,14.6,23,22.4c1.9-3.3,4.5-6.3,5.5-9.7c5.4-18,10.4-36.1,15.6-54.1c3.5-12.2,5.6-25.2,16-34.2c1.1-1,2-2.9,2.1-4.4
		C715.1,338.6,715.9,326.9,717,314z M323.1,77.3c1.1,2.1,2,3.9,3,5.8c4.2,8.2,10.5,15.5,11.4,25.3c0.1,1,0.9,2.3,1.8,2.8
		c6.8,3.9,14.1,7.4,21.7,3.6c5.2-2.5,8.8-1.4,12.8,1.5c2.3,1.7,4.5,3.5,6.9,4.9c5.7,3.3,10.7,7.8,17.9,8c14.5,0.4,26-5.2,34.8-16.3
		c4.6-5.8,9.9-10.2,16.5-13.4c3-1.5,5.7-4,7.8-6.7c2.7-3.5,1.5-6.1-2.8-7.3c-4.8-1.3-9.7-2.5-14.5-3.7c-29-6.6-58.1-11.6-88-8.3
		C342.7,74.8,333.2,76.1,323.1,77.3z M23.6,115.9c-0.4,0-0.8-0.1-1.3-0.1c-1.2,7.7-2.7,15.4-3.5,23.1c-3,28.8-7.7,57.6-8.2,86.4
		c-0.9,53.3,0.6,106.6,1.6,159.9c0.4,20.3,1.9,40.6,3,60.8c0.3,6.3-0.1,12.3-3.6,17.8c-7.6,11.7-7.5,24.2-4.2,37.1
		c2.1,8,10.2,14,17.4,14c1-11.1,2.7-22.1,2.7-33.2c0-6.8-2.1-13.6-3.8-20.3c-1.6-6.5-6.5-11.6-6.1-19.4c1.6-32.1,2.1-64.2,3.1-96.3
		c0.9-28.4,1.7-56.9,3.3-85.3c0.8-13.9,3.3-27.8,9.7-40.6c0.7-1.5,0.7-3.5,0.5-5.3c-2.1-19.5-4.4-39-6.5-58.6
		C26.4,142.7,25,129.3,23.6,115.9z M693.6,234.6c0.8-2.4,1.6-4.4,2.1-6.4c3.1-11.3,2.3-22.8,0.7-34.2c-2-14.5-4.9-29.2-1.4-43.7
		c1.9-8.1-2.1-12.2-5.9-17.3c-0.8,0.3-1.4,0.3-1.7,0.6c-6.4,5.4-13.6,7.5-21.9,5c-0.7-0.2-3.1,2.5-3,3.5c0.7,4.8,2,9.4,3.1,14.1
		c1.2,5,2.5,10,3.6,15c1,4.1,1.6,8.4,2.9,12.4c1,3.1,3,5.9,4.3,9C682.1,206.4,687.7,220.1,693.6,234.6z M829,75.8c0,0.4,0,0.8,0,1.2
		c-0.7,0.4-1.4,0.8-2.1,1.1c-6.6,3.7-6.9,7-1.1,11.6c6,4.8,12.8,7.9,20.5,8.2c3,0.1,6.8-0.9,9.1-2.8c11-9.1,21.6-18.6,32.2-28.2
		c1.1-1,1.5-3.7,1-5.1c-2.3-6.2-8.8-9.4-16.3-8.7c-9.8,0.9-18.6,4.7-26.9,9.8c-1.3,0.8-2.6,1.6-3.9,2.4c-0.4-0.4-0.9-0.8-1.3-1.3
		c2.7-3.5,5.3-7.1,8.4-11.2c-5.1-0.7-8.2-0.2-8.9,4.8c-0.6,4.4-3.9,6.4-7.8,7.4c-2.4,0.7-4.9,1-7.3,1.8c-3.4,1.1-5.5,3.5-5.9,7.8
		C822.4,75,825.7,75.4,829,75.8z M771.5,230.8c0.5-2.7,0.8-5.5,1.6-8.1c2.9-9,5.9-17.9,8.9-26.8c1.9-5.8,5.4-11.5,5.5-17.2
		c0.2-10.6,2.1-19.9,9.8-27.8c3.6-3.7,0.2-10.4-4.9-11.6c-3.5-0.8-7.2-1.9-9.9-4.1c-3-2.4-4.6-1.8-6.5,0.7
		c-3.9,5.2-5.7,11.1-5.8,17.7c-0.1,6,0.5,12.3-1.4,17.8C762.1,191.5,767.2,211,771.5,230.8z M625.4,60.4c-14.7,0-28.8,0-43.4,0
		c8.8,9.5-3.9,8.1-6.4,12.5c9.7,10.5,20.6,19.1,35.2,21.1c8.4,1.1,15.4-2,19.8-9.6c3-5.1,2.7-5.7-2.9-7.3c-6.2-1.7-7.6-4.4-5.2-10.3
		C623.2,65,624.1,63.2,625.4,60.4z M543.4,660.4c4.6-6.8,4.1-8.5-1.9-13.1c-1.4-1.1-2.3-3.6-2.3-5.5c0-3.5,0.6-6.9,1.3-10.4
		c2.9-15.5,6.5-30.9,8.7-46.5c1.2-8.8,0.2-18,0.2-27.3C527.1,575.8,523.1,644.4,543.4,660.4z M709.2,255.4c-0.2,0.7-0.4,1.4-0.6,2.2
		c2.6,1.6,5.2,3.3,7.8,4.9c2.4,1.4,5.1,2.5,7.3,4.2c3.2,2.5,3.1,6.7,0.2,9.6c-2.4,2.4-6.3,2.1-8.8-0.8c-1.4-1.6-2.5-3.5-4-5.1
		c-2.6-2.8-5.3-2.5-7.3,0.8c-2.5,4-1.6,6.6,3,7.9c4.6,1.3,9.9,1.3,13.9,3.6c13.3,7.6,31,5.2,40.7-6.5c1.2-1.4,2-3.5,2.1-5.3
		c0.1-1.3-1.4-2.6-2.2-3.9c-1.1,0.8-2.6,1.3-3.4,2.3c-1.4,1.8-2.3,4-3.6,6c-2,3-5.3,3.7-7.8,1.8c-1.8-1.3-3.7-5.1-3-6.8
		c1.2-3.1,4-5.8,6.7-8.1c2.7-2.4,6.1-4,8.8-6.4c1.3-1.1,1.9-3.2,2.8-4.8c-0.4-0.6-0.8-1.2-1.2-1.8
		C745.5,268.5,728.4,271.1,709.2,255.4z M768.9,116.2c0.8,3.5,1.2,6.4,2.2,9c0.6,1.7,2.4,4.4,3.3,4.3c2-0.3,4.7-1.6,5.5-3.4
		c4.2-8.4,11.4-12.2,20.1-14.1c2.9-0.6,4.2-2.1,3.9-5.3c-1-8.9-8.7-17.2-17.6-17.9c-2-0.2-4.8,1.8-6.1,3.6
		c-2.8,4.1-5.1,8.6-7.3,13.1C771.2,109.1,770.1,112.9,768.9,116.2z M654,116.1c2.2-0.4,4.9-0.8,7.5-1.5c3.1-0.9,6.7-3.6,9.2-2.8
		c7.2,2.3,14.7,4.9,20.7,9.3c3.3,2.4,3.6,8.8,5.2,13.4c0.1,0.3,0.5,0.6,0.8,0.9c0.8-18-8.5-30.8-21.2-41.6
		c-6.3-5.3-17.7-1.8-19.3,5.8C655.8,104.7,655.1,109.8,654,116.1z M215,649.2C215,649.2,215,649.2,215,649.2c5.7,0,11.3,0.1,17,0
		c2.1,0,4.2,0,3.3-3.3c-1.6-6-6.9-10.9-13.2-11.2c-9.3-0.4-18.6-0.2-27.9-0.2c-1.2,0-2.8,0.6-3.4,1.5c-2,3.4,3.6,13,7.6,13.1
		C204,649.3,209.5,649.2,215,649.2z M89.4,659c-0.4,4.1-0.5,7.5-1,10.8c-0.5,3.7,0.1,6.2,4.5,6.3c10.1,0.1,20.2,0.2,30.4,0.2
		c2.5,0,4.2-1.5,2.7-3.8c-2.2-3.4-4.4-7.8-7.7-9.3C109,659.1,99,657.2,89.4,659z M269.4,65.2c-4.8-2.1-9.6-4.3-14.5-6.3
		c-14.3-6-28.4-12.5-44.1-14c-6.6-0.7-12.9,0.2-19.8,2.7C204.8,53.9,255.8,65.8,269.4,65.2z M595.7,696.1
		c-5.1-17-25.1-17.3-37.3-7.1c3.9,2.5,7.3,6.3,11.1,6.8C577.9,696.8,586.5,696.1,595.7,696.1z M500.8,706.8c0.2,0.7,0.4,1.4,0.7,2.1
		c12.1,0,24.1,0,36,0c-1.5-2-3.3-4.2-4.8-6.6c-5-7.9-5.1-8.1-14-4.4C512.6,700.5,506.8,703.8,500.8,706.8z M539.7,691.5
		c1.2,3.9,2.4,7.8,3.8,11.7c0.3,0.7,1.4,1.5,2.2,1.6c3.6,0.3,7.3,0.5,10.9,0.5c3.1,0,3.5-1.7,2.6-4.4
		C555.7,690.6,551,688.2,539.7,691.5z M638,41.9c13.5,8.9,17.4,3.9,24.7-12.3C653.5,32.2,644.9,35.1,638,41.9z M249.4,470.6
		c-8.8,4.9-10.5,14.9-4.8,20.6c2.1,2.1,4.8,2.4,5-1C250.1,484,249.6,477.7,249.4,470.6z M143.4,666.5c-0.2-0.8-0.1-1.6-0.5-2.1
		c-3-4.6-6-9.2-9.3-13.6c-0.8-1-2.5-1.4-3.8-2c-0.3,1.5-1.3,3.3-0.8,4.4c1.4,3.5,3.6,6.7,5.2,10.2
		C136.2,667.7,139.3,668,143.4,666.5z M593.1,681.5c2.6,8.6,7.9,12.2,15.8,10.9C605.3,683.8,598.9,679.4,593.1,681.5z M249,638.7
		c-4.5-5.6-8.6-10.7-12.8-15.8C237.7,634.4,242.1,639.9,249,638.7z"/>
	<path class="st0" d="M54.9,379.3c9.4,2.2,18.1,5.1,27.1,6.1c9.3,1,15.2-4.5,17.2-13.9c2.3-11.4,1.4-22.7-2.6-33.5
		c-3.1-8.5-7.6-16.6-12.4-24.4c-2.1-3.4-6-6-9.6-8.3c-4.2-2.6-6.9-11.3-3.3-16.5c7.6-11.1,6.1-22.3,1.2-33.3
		c-3.8-8.3-3.9-16.4-2.9-25.2c2.4-19.9,3-39.8-2.3-59.5C62.6,153.1,53,140,34.5,134.6c-2.4-0.7-5.8-4.1-5.9-6.3
		c-0.5-20.1-0.7-40.4,5.4-59.9c5.1-16,16.2-24.5,32.2-23.8c4.8,0.2,10.2,2.2,14.2,5c8.7,6.3,17.7,11.2,28.5,12.3
		c0.9,0.1,1.9,0,3-0.7c-0.9-0.4-1.8-0.9-2.8-1.1c-8.6-1.7-15.5-6.1-22.1-11.8c-5.4-4.6-12.5-7.2-18.9-10.8c3.6-12.6,17-20,32-17.5
		c14.8,2.5,28.2,9,41.8,14.9c37.7,16.3,75.9,31.2,116.6,38c17.5,2.9,35.4,3.5,53.1,4.6c4.6,0.3,7.3,1.5,9.5,5.5
		c4.7,8.6,10.2,16.8,11.1,27c0.1,1.4,1.4,3.1,2.6,3.9c9.3,6,19.2,9.1,30.3,5c1.3-0.5,3.3-0.2,4.5,0.5c5.7,3.3,11.1,7.4,17,10.4
		c14.5,7.5,28.2,4.8,40.5-5c5.4-4.3,9.9-9.9,15.1-14.5c3.2-2.8,6.8-5.4,10.6-7.3c5-2.5,8.9-5.8,10.8-11.1c0.9-2.4,2.2-3.5,4.9-2.7
		c15.3,4.2,30,1.3,44.6-3.4c11.7-3.8,23.4-7.6,35.1-11.5c5.5-1.8,10.4-0.7,15,2.7c6.8,5.1,13.6,10.2,20.4,15.2
		c4.3,3.1,8.8,6,13.2,8.9c11.2,7.2,22.5,7.3,33.8,0.3c4.4-2.7,9-5.1,13.5-7.5c3.9-2.1,7-0.7,7.4,3.4c0.4,3.9-0.2,8.1-1.1,11.9
		c-0.8,3.1-3.4,5.7-1.5,9.4c0.4,0.8-1.1,2.9-2.1,4c-1.3,1.5-3,2.8-4.5,4.1c0.2,0.4,0.5,0.7,0.7,1.1c2.3-1.1,4.7-2.2,7-3.2
		c2.5-1.2,3.8-0.5,4.7,2.3c2.6,7.4,3.2,14.8,3.3,22.7c0.4,18.3,4.3,36,14.2,52.2c6.6,10.7,10.9,22.8,16,34.3
		c0.8,1.8,0.5,4.2,0.1,6.2c-2.1,9-3.9,18-1.6,27.2c2.1,8.7,6.6,15.1,16.5,16.3c4.1,0.5,8.2,1.7,12,3.2c1.3,0.5,2.8,2.8,2.8,4.3
		c0,3.8-0.6,7.7-1.4,11.4c-0.4,1.9-1.7,4-3.3,5c-12.2,8.1-24.5,16.2-37,23.7c-4.6,2.8-10.3,3.8-15.3,5.8c-1.7,0.7-3.9,1.7-4.7,3.1
		c-5.1,9.5-8,19.3-3.7,30.2c0.7,1.6,0.1,4.3-0.8,6c-2.3,4.4-5.5,8.4-7.8,12.8c-8.6,16.3-6.5,29.6,6.9,45.4c4.3,5,9.7,9.1,14.7,13.4
		c5.2,4.4,5.1,6.1,0.5,10.8c-11,11.2-24.2,16.9-39.8,17.1c-14.4,0.2-27.7-4-39.2-12.7c-4.8-3.7-9.8-5.3-15.5-5.9
		c-2-0.2-4-0.5-5.9-0.8c-7.6-1-8.3-2.1-6-9.6c2.8-8.9,8.4-16.2,14.5-23.1c1.5-1.7,2.7-3.9,4-5.8c-0.5-0.5-0.9-1-1.4-1.5
		c-1.6,1.1-3.4,1.9-4.8,3.2c-15.4,14-22.8,32.1-24.1,52.2c-1.1,17.9-0.4,35.9-0.2,53.9c0.1,12.2-1,23.7-8.4,34.2
		c-8.7,12.3-12.6,26.4-12.2,41.5c0.3,14.3,0.6,28.6,1.8,42.8c0.7,8.2,4.6,15.5,11.3,21.1c4.8,4,7.5,9.2,7.8,16.4
		c-9.3-0.9-15.4,7.5-25.1,7.2c-6.6-0.2-13.3,4-20.7,6.5c0-2.4,0-5.3,0-8.2c-0.1-4.4-1.3-8.1-5.1-10.8c-4.5-3.2-6-8.1-5.9-13.2
		c0.2-12.8,1.1-25.6,1.4-38.4c0.4-14.1,0.7-28.2,0.4-42.3c-0.1-4.8-1.9-9.8-4-14.3c-6.4-13.7-5.2-27.9-3.3-42.2
		c1.8-13.9,3.7-27.7,5.2-41.6c0.4-3.7-0.4-7.6-1-11.4c-1.4-9.7-6.4-17.1-15.1-21.7c-10-5.4-14-13.7-13.9-25.1
		c0.1-8.9-0.8-18-1.9-26.9c-1-8.2-4.1-15.8-9.9-22c-6.8-7.3-14.2-9.2-22.9-4.6c-7.7,4.1-15.1,9.1-22.1,14.4
		c-13.9,10.5-28.1,20.5-45.3,24.8c-9.1,2.2-18.7,2.9-28.1,3.8c-16.4,1.6-32.9,2.1-49.1-1.8c-7.2-1.7-14.1-4.5-21.7-6.1
		c1.4,0.9,2.7,1.9,4.2,2.7c17.5,9.1,36.3,10.6,55.4,9.5c10.6-0.6,21.3-1.2,31.8-2.9c21.4-3.7,39.5-14.4,56.3-27.8
		c5.5-4.3,11.1-8.5,17.2-12c9.2-5.3,17.6-3.6,22.6,5.7c3.7,6.8,5.3,14.9,7.1,22.6c1.1,4.4,0.7,9.1,1.1,14.6
		c-11.9-4.9-23.3-5.7-34.8-4.7c-14.7,1.4-29.5,3.2-44.1,5.1c-25.5,3.3-51,5.7-76.7,4.4c-35.7-1.9-69.3-11.2-99-32
		c-12.9-9-24.3-19.7-34.9-31.3c-3.5-3.8-7.3-7.3-11.5-10.2c-7.1-4.9-15.4-2.2-17.3,6.2c-1.9,8-2.8,16.4-3.3,24.6
		c-0.7,10.6-0.2,21.3-0.8,32c-0.8,13.9-6.4,26.5-12.1,38.9c-9.6,21-14.4,43.3-16.2,66.1c-2.4,30.7,0.8,60.9,11.9,89.9
		c2.9,7.7,5.9,15,5.4,23.4c-0.1,2.3,1.3,4.8,1.8,7.2c0.3,1.5,0.5,3.3-0.1,4.6c-4.1,9.5-4.1,9.5-14.5,8.7c-7.1-0.6-14.3-1.1-21.3-2.2
		c-1.5-0.2-2.7-2.5-3.8-4c-0.4-0.5-0.2-1.6-0.1-2.5c1.4-11.7-2.1-21.6-10.2-30.1c-1.3-1.4-2.1-4.4-1.7-6.3
		c5.4-24.8,3.9-49.5-1.8-73.8C65.8,515.5,59,495,52.7,474.5c-2.5-8.3-2.8-16.2,0-24.5c2.9-8.8,5.5-17.8,7.5-26.9
		c1.9-8.9,1.3-17.7-1.8-26.5C56.4,390.9,55.9,384.6,54.9,379.3z M198.4,121.7c0-0.1,0-0.1,0-0.2c0.5,0,1,0,1.5,0
		c18.7-0.3,33.3-6,36.7-26.9c0.3-1.6,3.3-3.6,5.2-3.9c5.7-0.8,11.6-0.6,17.4-1.3c2.5-0.3,4.8-2.1,7.1-3.2c-2.3-1.7-4.3-3.8-6.9-4.9
		c-2-0.9-4.6-0.7-6.9-1c-3-0.4-6.4,0.1-8.8-1.3c-6.1-3.6-12-2.7-18.4-1.7c-10.1,1.5-18.8-2.8-27.4-7.6c-7.2-4-15-6.8-23.4-4.7
		c-15.3,3.9-25.3,13.7-29.6,28.8c-3.1,10.9-5.3,22-8.1,33c-3,11.4-9.4,21.2-15.4,31.2c-7.1,11.9-14.8,23.4-24.9,32.9
		c-6.1,5.7-7,12.2-3.7,19.5c3.2,7.1,6.2,14.4,10,21.2c3.9,6.9,9.3,12.5,16.4,16.4c11.4,6.1,17,3.3,19-9.4c1.1-6.7,1.3-13.8,3.7-20.1
		c6.2-15.8,13.4-31.1,20.3-46.6c3.5-7.9,6.5-15.8,7.2-24.8c0.5-6.2,2.3-12.4,4.7-18.2c2.6-6.2,8.5-8.6,15.3-7.8
		C192.4,121.4,195.4,121.5,198.4,121.7z M306.6,188.5c-10.8,0.4-20.1,3.4-28.6,8.6c-12,7.4-23.8,15.3-36,22.5
		c-4.9,2.9-10.7,4.3-16.1,6.4c-1.5,0.6-3.5,1-4.2,2.2c-5.3,8.9-9.5,18.5-5.3,28.9c2.1,5.2,0.4,8.2-2.3,12
		c-5.1,7.4-9.6,15.1-10.3,24.5c-1,13.5,5.3,23.7,14.3,32.7c7.7,7.7,16.5,14.2,21.7,24.4c2.9,5.8,10.2,8.1,15.5,5.7
		c10.7-4.8,19.8-11.6,24.1-23.2c4.7-12.7,2.7-25.7,2.2-38.6c-0.7-16-2.2-31.9,4.5-47.2c4.5-10.3,11.4-17.2,22.2-20.6
		c4.8-1.5,9.4-4.2,13.6-7.1c6.5-4.5,8.8-11.4,6.1-17.9C324.9,194.3,318.4,188.4,306.6,188.5z M487.5,143.4
		c-10,0.7-19.3,3.5-27.8,8.8c-11.3,7.1-22.4,14.5-33.9,21.2c-5.7,3.3-12.1,5.1-18.2,7.7c-1.5,0.6-3.5,1.1-4.2,2.3
		c-4.9,8.4-8.7,17.3-5.3,27c2,5.7,0.9,9.5-2.3,14.2c-14.8,21-13.9,37.2,3.3,55.7c7.8,8.5,17.8,15,22.9,26c0.4,0.8,1.3,1.5,2.1,2.1
		c4,2.9,8.3,5.6,13.3,3.1c12.7-6.2,24.2-14.5,25.5-29.6c1.3-14.3,0.6-28.9-0.2-43.3c-0.7-11.2,0.3-22,3.9-32.5
		c4.1-12,11.5-20.6,24.2-24.5c5-1.5,9.8-4.3,13.9-7.6c8.1-6.3,8.1-15.4,1.5-23.2C501.1,144.9,494.5,143.8,487.5,143.4z"/>
	<path class="st0" d="M609.7,48.8c5.8,1.8,11.7,3.7,17.5,5.5c-0.1,0.5-0.1,1-0.2,1.5c-2.2,0-4.3,0.1-6.5,0
		c-11-0.5-21.9-1.1-32.9-1.6c-1.6-0.1-3.3,0.2-5,0.5c-6.1,1.3-7,2.9-5.5,9.3c-3,2.5-8.1,4.1-5.6,9.9c-5.3-1-10.7-6.7-10.5-11.2
		c0-1,1.2-2.4,2.1-2.8c13.7-5.6,27.4-11.4,41.3-16.5c11-4,21.9-2.5,32.4,2.8c3.5,1.8,7.3,3.3,11.2,4.1c6.8,1.5,9.7-0.1,13.1-6.2
		c2.9-5.2,4.7-11.2,10.8-13.8c0.8-0.3,1-2,1.5-3c0.5-1.1,0.6-2.7,1.4-3.1c3.6-1.8,4.8-4.1,5.8-8.4c0.8-3.6,6.9-7.5,11.3-8.5
		c8-1.8,16.4-2.4,24.6-2.1c9.1,0.4,18.1,2.5,27.2,3.7c1.9,0.3,4.1,0.4,5.9-0.1c3.5-1,6.2-1.2,8.4,2.7c1.8,3.2,4.7,1.1,7-0.2
		c5.4-3.2,6.1-3,7.1,3.4c1.4,8.5,6.5,14.9,11.9,21c4.7,5.4,10,10.2,15.1,15.2c3,3,7.2,4.1,9.7,0.7c8.4-11.6,19.9-8.8,31.4-8
		c12.8,0.9,25.6,0.8,38.4,1.2c7.2,0.2,13.9,2.1,19.1,7.3c0.9,0.9,1.1,4,0.3,4.8c-0.9,1-4.2,1.6-4.9,0.8c-9.4-10.5-20.9-8.4-32.5-5.6
		c-1.6,0.4-3.2,1-5.1,1.6c-1.6-4.8-5.6-4.8-9.7-4.7c-11.9,0.2-23.1,2.7-33.5,8.6c-4.6,2.6-7.5,6.1-9.1,11.7
		c-2.9,10.7-3.1,12.8-14.3,12.9c-3.4,0-7.1,0.7-10.1,2.2c-2.6,1.3-4.9,3.9-6.3,6.5c-2.6,5-4.5,10.3-6.7,15.5
		c-0.7,1.7-1.6,3.4-1.8,5.2c-1.1,10.2-2.3,20.5-2.9,30.8c-0.2,3.7,1.2,7.5,1.3,11.3c0.3,6.2,1.2,12.7-0.1,18.7
		c-3.3,15.5-2,30.8,0.8,46.1c2.2,11.8,5.1,23.4,6.9,35.3c0.9,5.8,0.3,12-0.6,17.8c-0.5,3.3-3.2,6.2-5,9.2c-0.6-0.3-1.1-0.6-1.7-0.9
		c1.1-1.8,2.1-3.7,3.3-5.5c3.4-5.2,2.9-8.2-2.5-11.5c-3.4-2-2.7-4.6-1.2-6.7c4-5.6,3.2-10.3-1.2-15.2c-2.9-3.2-4.5-7.6-7.5-10.5
		c-2.3-2.1-6-3.3-9.2-3.7c-1.4-0.2-4.2,2.3-4.6,4c-1.3,5.7-5.1,8.1-10.2,8.9c-3.5,0.6-5.7,1.5-6.8,5.3c-1.5,4.9-5.8,5.6-10.2,4.7
		c-3.6-0.7-7.1-2-10.7-2.3c-1.7-0.1-4.2,1.1-5.1,2.5c-0.6,0.8,0.9,3.4,1.9,4.9c1.5,2.3,3.7,4.3,4.9,6.8c0.6,1.2-0.1,3.5-0.9,4.8
		c-1.9,3.1-4.3,5.9-6.8,9.4c-3-1-5.5-3.6-4.9-8c1.2-7.7,1.9-15.5,4.2-22.9c5.5-18.2,8.9-36.4,5.9-55.6c-1.5-9.5-1.8-19.2-1.9-28.9
		c-0.1-4.4,0.9-9,2.6-13.1c1.9-4.6,2.2-8.8,1.3-13.6c-2.7-14.5-7.3-28-17.4-39.2c-4.5-5-9.4-8.2-16.5-7.6c-4.5,0.3-9,0.1-13.5-0.2
		c-1.3-0.1-2.5-1.8-3.7-2.7c1-1,1.8-2.4,2.9-3c1.9-1,4.1-1.4,6-2.3c3.5-1.6,4.4-4,1.7-7.1c-12.5-14-28-22.9-46.5-26.2
		c-2-0.4-4.3,0.8-6.5,1.2C609.8,47.4,609.7,48.1,609.7,48.8z"/>
	<path class="st0" d="M137.2,494.6c-0.3-1.7-0.9-3.3-0.9-5c-0.1-3.7-0.1-7.3,0.1-11c0.5-6.7-1.1-12.1-7.4-15.6
		c-3.5-2-4.1-5.7-2.3-8.8c11.1-19.2,11.3-40.8,13.8-61.9c0.6-4.9,2-9.9,4.2-14.3c3.1-6.4,9.3-9,16.1-9.3c1.7-0.1,4,1.6,5.2,3.1
		c12.1,15.2,26.3,28.2,42.8,38.6c14.7,9.2,30.4,16,47.2,19.7c4.8,1.1,5.5,3.1,4.2,7.3c-4.8,15.6-14.7,26.9-29.3,33.5
		c-8.4,3.8-17.5,6.3-26.4,8.6c-7.1,1.9-9.8,4.2-10.3,11.6c-0.3,4.1,0.2,8.3-0.1,12.5c-0.2,3.1-0.8,6.3-1.9,9.2
		c-0.4,1.2-2.2,2.6-3.6,2.8c-0.8,0.1-2.6-1.7-2.8-2.8c-0.9-4.2-1.5-8.4-1.8-12.7c-0.3-4.5-0.2-9-0.2-13.4c0.1-4.3-2.4-5.5-6.1-6.4
		c-6.9-1.7-13.8-3.8-20.5-6.1c-4.6-1.6-8-0.3-10.1,3.7c-2.2,3.9-3.7,8.2-5.6,12.3c-0.7,1.6-1.6,3.1-2.4,4.7
		C138.3,494.8,137.7,494.7,137.2,494.6z"/>
	<path class="st0" d="M37.1,312c1.9-14.8,4.8-30.6,5.8-46.4c0.8-13.5,0.4-27.3-1.2-40.7c-3.1-26.6-7.3-53.1-11.1-79.6
		c-0.7-5.1,1.5-6.9,6.3-5.2c15.5,5.6,24,17.9,27,32.9c3.6,18.2,4.1,37,2.1,55.6c-0.2,1.6-0.6,3.3-1.2,4.8
		c-3.1,7.1-1.6,13.3,2.6,19.7c6.7,10.3,7,21.1,1,32.1c-3,5.5-3.2,11.5-1.3,17.4c0.6,1.8,1.9,4.1,3.4,4.7c10.4,4,14.8,13,19,22.1
		c5.6,12,8.6,24.5,5.3,37.8c-2.7,11-9.7,15.6-20.8,12.9c-5.8-1.4-11.5-3.5-16.8-6.2c-10.8-5.4-13.4-16.1-15.4-26.7
		C39.8,336,38.8,324.6,37.1,312z"/>
	<path class="st0" d="M550.1,666.9c0.9-6,1.8-10.9,2.5-15.8c0.2-1.3-0.3-2.7-0.6-4.1c-1-4.4-3.5-8.9-3-13.1
		c2-15.5,5.1-30.8,7.6-46.3c1.8-11.8,2.5-23.5-3.4-34.6c-0.6-1.2-0.6-2.9-0.5-4.4c1.2-19.3,2.4-38.5,3.6-57.8
		c0.5-7.8,1-15.5,4.7-22.7c1.5-2.9,3.1-4.1,6.2-3.4c6.5,1.3,12.4,3.4,17.2,8.3c4.2,4.3,8.4,8.6,14.7,9.9c0.8,0.2,2.1,2.6,1.8,3.6
		c-6.9,24.8-6.7,50.4-9.3,75.7c-0.7,6.5-2.5,13.3-5.6,19c-7.1,13-7.8,26.5-5.9,40.7c1.8,13.1,4.1,26,10.4,37.8
		c2.8,5.3,2.3,10.5-0.7,15.7c-1.4,2.4-2.9,3.3-5.7,2.4c-3.7-1.1-7.4-2.4-11.2-2.4c-3.8,0-8.1,0.6-11.4,2.3c-4,2.1-6.3,1.4-8.1-2.1
		C552,672.7,551.1,669.4,550.1,666.9z"/>
	<path class="st0" d="M126.3,467.1c4.2,2.3,5.9,5.2,5.7,9.3c-0.2,4.7-0.3,9.3-0.2,14c0.1,4.1,0.7,8.2,5.7,9.3
		c4.9,1,8.5-1.2,10.5-6.3c1.4-3.6,2.4-7.3,4.1-10.7c0.6-1.2,3.1-2.1,4.6-2c2.2,0.1,4.4,1.4,6.7,2c3.4,1,4.8,3.2,5.7,6.7
		c6.6,24.6,12.5,49.4,20.6,73.5c4,12.1,11.9,22.9,18.5,34.1c1.5,2.5,4.8,3.9,7.4,5.7c3,2.1,6.1,4,8.9,6.3c4.2,3.5,7.3,7.5,6.4,13.7
		c-0.4,2.7,0.3,5.5,0.6,8.5c-7.4-0.7-14.5-1.5-21.5-2c-5.3-0.3-10.6,0.1-15.9-0.3c-2.1-0.2-4.7-1.4-5.9-3
		c-4.8-6.2-8.8-12.9-13.8-18.9c-2-2.4-5.8-4.2-8.9-4.5c-5.3-0.5-8.6-2.8-9.6-7.8c-2.3-11.1-4.4-22.2-6.4-33.3
		c-4.7-26.4-12.5-51.8-24.6-75.7C121.3,478.8,123.1,473.3,126.3,467.1z"/>
	<path class="st0" d="M717,314c-1,12.9-1.9,24.6-3,36.3c-0.1,1.5-1,3.4-2.1,4.4c-10.4,9.1-12.5,22-16,34.2
		c-5.2,18-10.2,36.1-15.6,54.1c-1,3.5-3.6,6.5-5.5,9.7c-8.2-7.9-16.5-14.4-23-22.4c-9.5-11.8-12-28-1.6-41c1.8-2.2,3-4.8,4.5-7.2
		c3.2-4.7,4.3-9.2,1.8-14.9c-3.2-7.2-0.8-14.4,2.7-21c0.6-1,1.9-2.2,3-2.3c9.6-1,16.6-7.3,24.4-12c9-5.4,17.8-11,26.8-16.5
		C713.8,315,714.5,314.9,717,314z"/>
	<path class="st0" d="M323.1,77.3c10.1-1.3,19.6-2.6,29.2-3.6c29.9-3.3,59.1,1.7,88,8.3c4.9,1.1,9.7,2.3,14.5,3.7
		c4.3,1.2,5.5,3.8,2.8,7.3c-2.1,2.7-4.8,5.2-7.8,6.7c-6.6,3.2-11.9,7.6-16.5,13.4c-8.8,11.1-20.4,16.7-34.8,16.3
		c-7.2-0.2-12.3-4.7-17.9-8c-2.4-1.4-4.7-3.2-6.9-4.9c-4-2.9-7.6-4.1-12.8-1.5c-7.6,3.8-14.9,0.2-21.7-3.6c-0.9-0.5-1.7-1.8-1.8-2.8
		c-0.9-9.8-7.2-17.1-11.4-25.3C325.1,81.3,324.1,79.4,323.1,77.3z"/>
	<path class="st0" d="M23.6,115.9c1.4,13.4,2.8,26.8,4.2,40.1c2.1,19.5,4.4,39,6.5,58.6c0.2,1.7,0.2,3.8-0.5,5.3
		c-6.5,12.8-8.9,26.6-9.7,40.6c-1.6,28.4-2.4,56.9-3.3,85.3c-1,32.1-1.5,64.2-3.1,96.3c-0.4,7.8,4.5,12.9,6.1,19.4
		c1.6,6.7,3.8,13.5,3.8,20.3c-0.1,11.1-1.7,22.1-2.7,33.2c-7.2,0-15.3-6-17.4-14c-3.3-12.8-3.4-25.4,4.2-37.1
		c3.5-5.5,3.9-11.5,3.6-17.8c-1.1-20.3-2.6-40.5-3-60.8c-1-53.3-2.5-106.6-1.6-159.9c0.5-28.9,5.2-57.6,8.2-86.4
		c0.8-7.7,2.3-15.4,3.5-23.1C22.8,115.9,23.2,115.9,23.6,115.9z"/>
	<path class="st0" d="M693.6,234.6c-6-14.5-11.5-28.2-17.2-41.9c-1.3-3.1-3.3-5.9-4.3-9c-1.3-4-1.9-8.3-2.9-12.4
		c-1.2-5-2.5-10-3.6-15c-1.1-4.7-2.4-9.4-3.1-14.1c-0.2-1.1,2.3-3.7,3-3.5c8.3,2.4,15.4,0.3,21.9-5c0.4-0.3,0.9-0.3,1.7-0.6
		c3.8,5.1,7.9,9.2,5.9,17.3c-3.4,14.4-0.6,29.1,1.4,43.7c1.6,11.4,2.4,22.9-0.7,34.2C695.2,230.3,694.5,232.2,693.6,234.6z"/>
	<path class="st0" d="M829,75.8c-3.3-0.4-6.6-0.7-10.1-1.1c0.4-4.3,2.4-6.7,5.9-7.8c2.4-0.8,4.9-1.1,7.3-1.8c3.9-1.1,7.2-3,7.8-7.4
		c0.6-5.1,3.8-5.5,8.9-4.8c-3.1,4.1-5.8,7.6-8.4,11.2c0.4,0.4,0.9,0.8,1.3,1.3c1.3-0.8,2.6-1.6,3.9-2.4c8.3-5.1,17.1-8.9,26.9-9.8
		c7.5-0.7,14,2.5,16.3,8.7c0.5,1.4,0.1,4.1-1,5.1c-10.6,9.6-21.2,19.1-32.2,28.2c-2.3,1.9-6.1,2.9-9.1,2.8
		c-7.7-0.3-14.5-3.4-20.5-8.2c-5.8-4.6-5.4-7.9,1.1-11.6c0.7-0.4,1.4-0.8,2.1-1.1C829,76.6,829,76.2,829,75.8z"/>
	<path class="st0" d="M771.5,230.8c-4.3-19.8-9.4-39.2-2.6-59.4c1.8-5.5,1.3-11.8,1.4-17.8c0.1-6.6,1.9-12.4,5.8-17.7
		c1.9-2.5,3.5-3.1,6.5-0.7c2.7,2.1,6.4,3.3,9.9,4.1c5.1,1.2,8.5,7.9,4.9,11.6c-7.7,7.9-9.6,17.2-9.8,27.8
		c-0.1,5.8-3.6,11.5-5.5,17.2c-3,8.9-6,17.9-8.9,26.8C772.3,225.3,772,228.1,771.5,230.8z"/>
	<path class="st0" d="M625.4,60.4c-1.3,2.8-2.2,4.5-2.9,6.4c-2.4,5.9-1,8.6,5.2,10.3c5.6,1.5,5.9,2.1,2.9,7.3
		c-4.4,7.6-11.5,10.8-19.8,9.6c-14.6-2-25.4-10.5-35.2-21.1c2.6-4.4,15.2-3,6.4-12.5C596.6,60.4,610.7,60.4,625.4,60.4z"/>
	<path class="st0" d="M543.4,660.4c-20.3-16-16.3-84.5,6-102.8c0,9.3,1,18.5-0.2,27.3c-2.2,15.6-5.8,31-8.7,46.5
		c-0.6,3.4-1.3,6.9-1.3,10.4c0,1.9,0.9,4.4,2.3,5.5C547.5,651.9,548,653.6,543.4,660.4z"/>
	<path class="st0" d="M709.2,255.4c19.2,15.7,36.2,13.2,51.3-6.1c0.4,0.6,0.8,1.2,1.2,1.8c-0.9,1.6-1.5,3.7-2.8,4.8
		c-2.7,2.4-6.1,4-8.8,6.4c-2.6,2.3-5.4,5-6.7,8.1c-0.7,1.7,1.2,5.5,3,6.8c2.5,1.8,5.8,1.2,7.8-1.8c1.3-1.9,2.2-4.1,3.6-6
		c0.8-1,2.2-1.6,3.4-2.3c0.8,1.3,2.2,2.7,2.2,3.9c-0.1,1.8-0.9,3.9-2.1,5.3c-9.7,11.7-27.5,14.1-40.7,6.5c-4-2.3-9.3-2.3-13.9-3.6
		c-4.6-1.3-5.4-3.9-3-7.9c2-3.3,4.7-3.6,7.3-0.8c1.5,1.6,2.6,3.5,4,5.1c2.5,2.9,6.5,3.1,8.8,0.8c2.9-2.9,3-7.2-0.2-9.6
		c-2.2-1.7-4.9-2.8-7.3-4.2c-2.6-1.6-5.2-3.3-7.8-4.9C708.8,256.8,709,256.1,709.2,255.4z"/>
	<path class="st0" d="M768.9,116.2c1.2-3.2,2.3-7.1,4-10.6c2.1-4.5,4.4-9,7.3-13.1c1.3-1.8,4.1-3.8,6.1-3.6
		c8.9,0.7,16.6,9,17.6,17.9c0.4,3.1-0.9,4.6-3.9,5.3c-8.7,1.8-15.9,5.6-20.1,14.1c-0.9,1.7-3.5,3-5.5,3.4c-0.9,0.1-2.6-2.6-3.3-4.3
		C770.1,122.6,769.7,119.7,768.9,116.2z"/>
	<path class="st0" d="M654,116.1c1.1-6.3,1.8-11.4,2.9-16.5c1.6-7.5,13.1-11.1,19.3-5.8c12.7,10.9,22,23.6,21.2,41.6
		c-0.3-0.3-0.7-0.6-0.8-0.9c-1.7-4.6-2-11-5.2-13.4c-5.9-4.4-13.5-7.1-20.7-9.3c-2.5-0.8-6.1,1.9-9.2,2.8
		C658.9,115.3,656.2,115.7,654,116.1z"/>
	<path class="st0" d="M215,649.2c-5.5,0-11,0.1-16.5,0c-4-0.1-9.6-9.7-7.6-13.1c0.5-0.9,2.2-1.5,3.4-1.5c9.3-0.1,18.6-0.2,27.9,0.2
		c6.3,0.3,11.5,5.2,13.2,11.2c0.9,3.2-1.2,3.3-3.3,3.3C226.3,649.2,220.6,649.2,215,649.2C215,649.2,215,649.2,215,649.2z"/>
	<path class="st0" d="M89.4,659c9.6-1.7,19.5,0.1,28.8,4.2c3.3,1.5,5.6,5.9,7.7,9.3c1.5,2.3-0.3,3.8-2.7,3.8
		c-10.1,0-20.2-0.1-30.4-0.2c-4.4,0-5-2.6-4.5-6.3C88.9,666.5,89.1,663.1,89.4,659z"/>
	<path class="st0" d="M269.4,65.2c-13.7,0.6-64.6-11.3-78.4-17.6c6.9-2.6,13.2-3.4,19.8-2.7c15.7,1.6,29.8,8.1,44.1,14
		C259.8,61,264.6,63.1,269.4,65.2z"/>
	<path class="st0" d="M595.7,696.1c-9.2,0-17.8,0.7-26.3-0.3c-3.8-0.5-7.2-4.3-11.1-6.8C570.7,678.8,590.7,679.1,595.7,696.1z"/>
	<path class="st0" d="M500.8,706.8c6-3,11.8-6.4,17.9-8.9c8.9-3.7,9-3.4,14,4.4c1.5,2.4,3.3,4.5,4.8,6.6c-11.9,0-24,0-36,0
		C501.3,708.2,501.1,707.5,500.8,706.8z"/>
	<path class="st0" d="M539.7,691.5c11.3-3.3,16-0.9,19.5,9.3c0.9,2.6,0.5,4.4-2.6,4.4c-3.6,0-7.3-0.2-10.9-0.5
		c-0.8-0.1-2-0.8-2.2-1.6C542.1,699.3,540.9,695.4,539.7,691.5z"/>
	<path class="st0" d="M638,41.9c6.9-6.8,15.5-9.7,24.7-12.3C655.3,45.8,651.4,50.8,638,41.9z"/>
	<path class="st0" d="M249.4,470.6c0.1,7,0.7,13.3,0.2,19.6c-0.2,3.3-2.9,3.1-5,1C239,485.5,240.6,475.5,249.4,470.6z"/>
	<path class="st0" d="M143.4,666.5c-4.1,1.5-7.1,1.2-9.2-3c-1.6-3.4-3.8-6.7-5.2-10.2c-0.5-1.2,0.5-2.9,0.8-4.4c1.3,0.6,3,1,3.8,2
		c3.3,4.4,6.3,9,9.3,13.6C143.2,664.9,143.2,665.6,143.4,666.5z"/>
	<path class="st0" d="M593.1,681.5c5.8-2.1,12.2,2.3,15.8,10.9C601,693.7,595.8,690.1,593.1,681.5z"/>
	<path class="st0" d="M249,638.7c-6.9,1.1-11.3-4.3-12.8-15.8C240.4,628,244.5,633.2,249,638.7z"/>
	<path d="M198.4,121.7c-3-0.2-6-0.3-9-0.7c-6.7-0.8-12.7,1.5-15.3,7.8c-2.4,5.7-4.3,12-4.7,18.2c-0.7,8.9-3.7,16.8-7.2,24.8
		c-6.9,15.5-14.1,30.9-20.3,46.6c-2.4,6.2-2.6,13.3-3.7,20.1c-2,12.8-7.6,15.6-19,9.4c-7.1-3.8-12.6-9.5-16.4-16.4
		c-3.8-6.8-6.8-14.1-10-21.2c-3.3-7.3-2.4-13.8,3.7-19.5c10.2-9.5,17.8-21,24.9-32.9c6-10,12.4-19.8,15.4-31.2c2.9-11,5-22.1,8.1-33
		c4.3-15.1,14.3-24.9,29.6-28.8c8.5-2.2,16.2,0.6,23.4,4.7c8.6,4.8,17.3,9.1,27.4,7.6c6.4-0.9,12.4-1.9,18.4,1.7
		c2.4,1.4,5.8,1,8.8,1.3c2.3,0.3,4.8,0.1,6.9,1c2.5,1.1,4.6,3.2,6.9,4.9c-2.4,1.1-4.7,2.8-7.1,3.2c-5.8,0.7-11.7,0.5-17.4,1.3
		c-2,0.3-5,2.3-5.2,3.9c-3.4,21-18,26.6-36.7,26.9c-0.5,0-1,0-1.5,0C198.4,121.6,198.4,121.7,198.4,121.7z M256.7,86.3
		c0.1-0.7,0.1-1.4,0.2-2.1c-1.1-0.2-2.1-0.6-3.2-0.7c-5.9-0.5-12.4,1.9-17.5-3.3c-0.4-0.4-1.9,0-2.8,0.2c-8.7,2.3-17.2,1.8-25.4-1.7
		c-5.8-2.5-11.2-5.9-17-8.4c-8.6-3.8-17.4-4.4-25.1,1.6c-8.7,6.8-15.1,15.2-17.5,26.5c-3.5,16.4-5.7,33.2-14.9,47.9
		c-4.6,7.3-8.4,15.2-13.4,22.2c-7.3,10.1-12.6,21.6-22.5,29.7c-1.5,1.2-1.8,5-1.3,7.2c2.5,10.5,7,20.2,13.7,28.6
		c4.1,5.2,8.7,10.1,15.7,11.8c5.5,1.3,8-0.1,8.4-5.7c1.4-22,10.1-41.6,19.9-60.8c5.5-10.7,11-21.2,11.8-33.6
		c0.4-6,2.3-12.1,4.4-17.8c2.3-6.5,7.5-10.3,14.4-10.8c5.9-0.4,11.9-0.1,17.9,0.2c16.4,0.6,29-7.8,30.4-24.2c0-0.2,0.1-0.3,0.1-0.5
		c0.8-4.4,3.1-6.7,7.9-6.4C245.8,86.6,251.3,86.3,256.7,86.3z"/>
	<path d="M306.6,188.5c11.9,0,18.3,5.8,21.6,13.6c2.7,6.5,0.4,13.4-6.1,17.9c-4.2,2.9-8.8,5.6-13.6,7.1
		c-10.9,3.4-17.8,10.3-22.2,20.6c-6.7,15.3-5.2,31.2-4.5,47.2c0.5,12.9,2.6,25.9-2.2,38.6c-4.4,11.6-13.4,18.4-24.1,23.2
		c-5.3,2.4-12.6,0.1-15.5-5.7c-5.1-10.2-14-16.7-21.7-24.4c-9-9-15.3-19.2-14.3-32.7c0.7-9.4,5.2-17.1,10.3-24.5
		c2.7-3.9,4.4-6.8,2.3-12c-4.2-10.3,0-19.9,5.3-28.9c0.7-1.2,2.7-1.6,4.2-2.2c5.4-2.1,11.1-3.5,16.1-6.4c12.2-7.2,23.9-15.1,36-22.5
		C286.5,191.9,295.8,188.9,306.6,188.5z M208.2,294.3c0,11.7,5.3,23.5,14.2,30.3c7.8,5.9,14.6,12.4,18.9,21.5
		c2.5,5.3,7.6,7.1,12.6,5.7c12.8-3.4,23.2-15.5,23.9-28.9c0.5-9.9-0.2-20-0.4-29.9c-0.3-13.4-1.8-26.9,2.6-40.1
		c4.5-13.5,11.2-24.4,25.9-29.3c6.4-2.1,11.9-7,17.5-11.1c1.4-1.1,2.5-4.5,1.9-6.1c-2.3-6-5.9-11.4-12.8-12.8
		c-8.5-1.8-16.9,0.3-24.2,4.2c-14.6,7.9-28.6,16.9-43.1,25.1c-5.4,3.1-11.3,5.3-16.9,8c-1.9,0.9-4.3,1.9-5.1,3.5
		c-3.3,7-5.4,14.1-1.9,22.1c1.2,2.9,0.5,7.1-0.6,10.3c-0.9,2.9-3.4,5.3-5.1,7.9C211.5,280.8,207.6,287.1,208.2,294.3z"/>
	<path d="M487.5,143.4c7.1,0.3,13.7,1.4,18.8,7.4c6.6,7.8,6.6,16.9-1.5,23.2c-4.1,3.2-8.9,6.1-13.9,7.6
		c-12.7,3.8-20.1,12.5-24.2,24.5c-3.6,10.5-4.6,21.3-3.9,32.5c0.9,14.4,1.6,29,0.2,43.3c-1.4,15.1-12.8,23.4-25.5,29.6
		c-5.1,2.5-9.3-0.1-13.3-3.1c-0.8-0.6-1.7-1.3-2.1-2.1c-5.1-10.9-15-17.5-22.9-26c-17.2-18.6-18.1-34.8-3.3-55.7
		c3.2-4.6,4.3-8.5,2.3-14.2c-3.5-9.7,0.4-18.7,5.3-27c0.7-1.2,2.7-1.7,4.2-2.3c6.1-2.6,12.6-4.4,18.2-7.7
		c11.5-6.7,22.6-14.1,33.9-21.2C468.1,146.9,477.4,144.1,487.5,143.4z M389,249.4c1.3,11.2,5.1,20.4,12.9,27.6
		c8.1,7.4,17,13.8,21.6,24.4c2.1,4.9,7.8,7,12.3,5.3c11.2-4.1,20.6-11.1,22.5-23.3c1.8-11.2,1.6-22.9,1.1-34.3
		c-0.7-16.7-2.2-33.4,5.2-49.1c4-8.5,9-16,18.7-19.7c6.9-2.6,13.5-6.5,19.7-10.6c5.9-4,5.5-8.8,1.1-14.4c-5.6-7-12.4-9-20.8-6.8
		c-4.3,1.2-9,1.9-12.8,4c-11.9,6.4-23.5,13.2-35.1,20c-8.7,5.1-16.6,11.9-26.9,13.8c-1.2,0.2-2.7,1.2-3.1,2.3
		c-2.9,7.1-6,14.4-2.1,22.1c2.2,4.3,1.5,8-0.9,11.7c-2.4,3.8-5.4,7.3-7.3,11.3C392.4,238.8,390.9,244.2,389,249.4z"/>
	<path class="st0" d="M256.7,86.3c-5.4,0-10.8,0.2-16.2-0.1c-4.8-0.3-7.1,2-7.9,6.4c0,0.2-0.1,0.3-0.1,0.5
		c-1.4,16.4-13.9,24.8-30.4,24.2c-6-0.2-12-0.6-17.9-0.2c-6.8,0.5-12.1,4.3-14.4,10.8c-2,5.7-4,11.8-4.4,17.8
		c-0.7,12.5-6.3,23-11.8,33.6c-9.9,19.2-18.5,38.8-19.9,60.8c-0.4,5.6-2.8,7.1-8.4,5.7c-7-1.7-11.6-6.6-15.7-11.8
		c-6.7-8.4-11.3-18.1-13.7-28.6c-0.5-2.3-0.2-6,1.3-7.2c10-8.1,15.3-19.7,22.5-29.7c5-7,8.8-14.9,13.4-22.2
		c9.3-14.7,11.4-31.5,14.9-47.9c2.4-11.3,8.9-19.7,17.5-26.5c7.7-6,16.5-5.4,25.1-1.6c5.8,2.6,11.2,5.9,17,8.4
		c8.2,3.5,16.8,3.9,25.4,1.7c0.9-0.2,2.4-0.7,2.8-0.2c5.1,5.3,11.6,2.8,17.5,3.3c1.1,0.1,2.1,0.5,3.2,0.7
		C256.8,84.9,256.7,85.6,256.7,86.3z"/>
	<path class="st0" d="M208.2,294.3c-0.6-7.2,3.3-13.5,7.3-19.7c1.7-2.7,4.2-5,5.1-7.9c1-3.2,1.8-7.4,0.6-10.3
		c-3.4-8-1.3-15.1,1.9-22.1c0.8-1.6,3.2-2.6,5.1-3.5c5.6-2.7,11.5-4.9,16.9-8c14.4-8.2,28.4-17.2,43.1-25.1c7.3-3.9,15.6-6,24.2-4.2
		c6.9,1.4,10.4,6.9,12.8,12.8c0.6,1.6-0.4,5.1-1.9,6.1c-5.6,4.1-11.1,9-17.5,11.1c-14.7,4.9-21.4,15.8-25.9,29.3
		c-4.4,13.2-2.9,26.6-2.6,40.1c0.3,10,0.9,20,0.4,29.9c-0.6,13.5-11.1,25.5-23.9,28.9c-5,1.3-10.1-0.5-12.6-5.7
		c-4.3-9.1-11.1-15.5-18.9-21.5C213.5,317.8,208.3,306,208.2,294.3z"/>
	<path class="st0" d="M389,249.4c1.9-5.2,3.5-10.6,5.8-15.6c1.9-4,4.8-7.6,7.3-11.3c2.4-3.7,3.1-7.5,0.9-11.7
		c-3.9-7.7-0.8-15,2.1-22.1c0.4-1,1.9-2.1,3.1-2.3c10.4-1.9,18.2-8.7,26.9-13.8c11.6-6.8,23.3-13.6,35.1-20c3.9-2.1,8.5-2.8,12.8-4
		c8.4-2.2,15.2-0.3,20.8,6.8c4.4,5.6,4.8,10.4-1.1,14.4c-6.1,4.2-12.7,8.1-19.7,10.6c-9.7,3.6-14.7,11.2-18.7,19.7
		c-7.4,15.7-6,32.4-5.2,49.1c0.5,11.4,0.7,23.1-1.1,34.3c-1.9,12.2-11.3,19.2-22.5,23.3c-4.4,1.6-10.1-0.5-12.3-5.3
		c-4.6-10.6-13.6-17-21.6-24.4C394,269.8,390.2,260.5,389,249.4z"/>
</g>
</svg>
